<svg xmlns="http://www.w3.org/2000/svg" width="512" height="1070.92" viewBox="0 0 512 1070.92"><path fill="#F1EFEA" d="M350.365 442.824c-4.348-.395-10.459-.89-17.891-1.446 134.292-190.62 168.989-335.376 168.989-335.376s-114.897 67.679-160.541 149.524c-38.833 69.632-33.808 159.077-31.444 184.225-49.956-3.367-125.738-7.518-162.669-6.949-2.163-72.018-12.596-310.34-57.717-421.55 0 0-90.091 182.265 37.774 423.133-34.026 7.764-66.836 52.945-78.697 85.563-12.591 34.627-17.313 97.584 22.035 108.602s91.288 22.035 91.288 22.035l-11.018 64.531s-75.549 23.609-118.045 66.105c-42.496 42.496-12.591 59.81 0 69.253l102.306-75.549S92.239 944.91 81.221 995.276c-11.018 50.366 9.444 62.957 62.957 67.679 0 0 10.08-67.276 22.035-99.158 4.722-12.591 86.324-1.547 86.324-1.547l12.834 88.114s40.922-1.574 40.922-70.827-37.773-135.36-37.773-210.908l66.105 53.514s12.591-12.591 12.591-28.331c0-11.987 1.462-26.757-15.852-39.348C314.052 741.872 262 714.328 262 714.328v-55.875s59.922-23.609 78.809-34.627 29.961-18.887 37.831-47.218c7.87-28.331 15.767-48.792 20.489-69.253 4.722-20.461-14.137-61.383-48.764-64.531z"/><path fill="#DC1F26" d="M229.172 589.2h33.053l-25.183 33.053z"/><path fill="#3666B0" d="M322.88 526.856c5.857.453 6.622 4.718 5.212 7.984-3.152 7.299-.232 19.222-10.294 21.062-7.994 1.462-4.795-7.622-4.896-11.997-.173-7.484 1.519-14.731 9.978-17.049zM142.373 526.856c5.857.453 6.622 4.718 5.212 7.984-3.152 7.299-.232 19.222-10.294 21.062-7.994 1.462-4.795-7.622-4.896-11.997-.173-7.484 1.519-14.731 9.978-17.049z"/></svg>