<svg xmlns="http://www.w3.org/2000/svg" width="512" height="1070.92" viewBox="0 0 512 1070.92"><path fill="#F1EFEA" d="M144.18 1062.954s10.08-67.276 22.035-99.158c4.722-12.591 86.324-1.547 86.324-1.547l12.834 88.114s40.922-1.574 40.922-70.827-37.775-135.359-37.775-210.907l66.105 53.514s12.591-12.591 12.591-28.331c0-11.987 1.574-26.757-15.739-39.348-17.313-12.591-69.253-40.135-69.253-40.135v-55.875s59.81-23.609 78.697-34.627 29.905-18.887 37.774-47.218c7.87-28.331 15.739-48.792 20.461-69.253 4.722-20.461-14.165-61.383-48.792-64.531-34.627-3.148-181.003-12.591-217.203-9.444s-72.401 51.94-84.993 86.566-17.313 97.584 22.035 108.602 91.288 22.035 91.288 22.035l-11.018 64.531S74.924 738.724 32.428 781.22c-42.496 42.496-12.591 59.81 0 69.253l102.306-75.549S92.238 944.909 81.22 995.275s9.446 62.958 62.96 67.679z"/><path fill="#F1EFEA" d="M147.327 453.841S142.605 143.146 89.091 11.25c0 0-92.993 188.135 44.07 434.721l14.166 7.87zM310.226 446.609s-14.949-109.239 30.696-191.083 160.541-149.524 160.541-149.524S465.262 257.1 323.608 453.841l-13.382-7.232z"/><path fill="#DC1F26" d="M229.172 589.2h33.053l-25.183 33.053z"/><path fill="#3666B0" d="M322.88 526.856c5.857.453 6.622 4.718 5.212 7.984-3.152 7.299-.232 19.222-10.294 21.062-7.994 1.462-4.795-7.622-4.896-11.997-.173-7.484 1.519-14.731 9.978-17.049zM142.373 526.856c5.857.453 6.622 4.718 5.212 7.984-3.152 7.299-.232 19.222-10.294 21.062-7.994 1.462-4.795-7.622-4.896-11.997-.173-7.484 1.519-14.731 9.978-17.049z"/></svg>