<svg xmlns="http://www.w3.org/2000/svg" width="512" height="1070.92" viewBox="0 0 512 1070.92"><path fill="#F1EFEA" d="M399.129 507.355c-4.722 20.461-12.62 40.922-20.489 69.253-7.87 28.331-18.943 36.201-37.831 47.218C321.922 634.844 262 658.453 262 658.453v55.875s52.052 27.544 69.366 40.135c17.313 12.591 15.852 27.362 15.852 39.348 0 15.739-12.591 28.331-12.591 28.331l-66.105-53.514c0 75.549 37.774 141.654 37.774 210.907s-40.922 70.827-40.922 70.827l-12.834-88.114s-81.602-11.044-86.324 1.547c-11.956 31.881-22.035 99.158-22.035 99.158-53.514-4.722-73.975-17.313-62.957-67.679 11.018-50.366 53.514-220.351 53.514-220.351L32.43 850.473c-12.591-9.444-42.496-26.757 0-69.253 42.496-42.496 118.045-66.105 118.045-66.105l11.018-64.531s-51.94-11.018-91.288-22.035c-39.348-11.018-34.627-73.975-22.035-108.602 11.861-32.618 44.671-77.799 78.697-85.563C-.999 193.516 89.092 11.251 89.092 11.251c45.121 111.21 55.554 349.532 57.717 421.55 36.931-.569 112.713 3.582 162.669 6.949-2.365-25.147-7.39-114.592 31.444-184.225 45.644-81.845 160.541-149.524 160.541-149.524s-34.697 144.756-168.989 335.376c7.432.556 13.544 1.051 17.891 1.446 34.627 3.149 53.486 44.071 48.764 64.532zM237.042 622.42l25.183-33.053h-33.053l7.87 33.053zm75.86-78.515c.101 4.376-3.098 13.46 4.896 11.997 10.062-1.84 7.142-13.763 10.294-21.062 1.41-3.266.645-7.532-5.212-7.984-8.459 2.318-10.151 9.565-9.978 17.049zm-180.507 0c.101 4.376-3.098 13.46 4.896 11.997 10.062-1.84 7.142-13.763 10.294-21.062 1.41-3.266.645-7.532-5.212-7.984-8.459 2.318-10.151 9.565-9.978 17.049z"/></svg>