<svg xmlns="http://www.w3.org/2000/svg" width="885" height="621.205" viewBox="0 0 885 621.205"><path fill="#231F20" d="M875.25 310.466c0-42.733-13.496-65.225-39.362-83.218L592.979 58.56c-32.614-22.492-70.851-48.358-149.569-48.358-78.721 0-116.958 25.866-149.572 48.358L49.803 227.248C23.94 245.24 9.318 271.106 9.318 310.466c0 39.362 14.622 65.225 40.485 83.218l244.035 168.69c32.614 22.489 70.851 48.356 149.572 48.356 78.718 0 116.955-25.866 149.569-48.356l242.909-168.69c25.866-17.993 39.362-40.485 39.362-83.218m-88.843-46.108c26.989 0 46.107 19.118 46.107 46.107 0 25.866-19.118 47.233-46.107 47.233S740.3 336.331 740.3 310.465c0-26.988 19.118-46.107 46.107-46.107m-688.245 0c28.115 0 47.233 19.118 47.233 46.107 0 25.866-19.118 47.233-47.233 47.233-26.989 0-46.107-21.367-46.107-47.233-.001-26.988 19.118-46.107 46.107-46.107m344.122-150.694c109.084 0 194.553 83.218 194.553 195.676 0 111.336-85.469 195.679-194.553 195.679S248.856 420.675 248.856 309.34c0-111.333 84.344-195.676 193.428-195.676"/></svg>