<svg xmlns="http://www.w3.org/2000/svg" width="512" height="621.205" viewBox="0 0 512 621.205"><path fill="#F1EFEA" d="M33.194 147.555a2.902 2.902 0 0 1-2.051-4.951l90.999-90.999c1.088-1.087 3.014-1.087 4.102 0l28.684 28.685a2.9 2.9 0 0 1 .013 4.088l-25.717 26.047a2.899 2.899 0 0 1-2.054.862h-.009a2.9 2.9 0 0 1-2.051-.849l-16.815-16.815a2.902 2.902 0 0 1 0-4.102 2.902 2.902 0 0 1 4.102 0l14.751 14.751 21.642-21.919-24.596-24.597-88.948 88.949c-.568.567-1.31.85-2.052.85zm305.874-17.499a2.9 2.9 0 0 0 0-4.102L222.847 9.733c-1.088-1.087-3.014-1.087-4.102 0l-55.391 55.391a2.902 2.902 0 0 0 0 4.102 2.902 2.902 0 0 0 4.102 0l53.34-53.34 114.17 114.171c.566.566 1.309.849 2.051.849s1.485-.284 2.051-.85zm-121.99 17.804a2.902 2.902 0 0 0 0-4.102l-49.621-49.621a2.902 2.902 0 0 0-4.102 0 2.902 2.902 0 0 0 0 4.102l49.621 49.621c.566.566 1.309.849 2.051.849s1.484-.283 2.051-.849zm16.51 240.436a2.9 2.9 0 0 0-2.9-2.9h-75.621L71.842 302.17a2.902 2.902 0 0 0-4.102 0 2.902 2.902 0 0 0 0 4.102l84.075 84.075c.544.544 1.282.85 2.051.85h76.822a2.902 2.902 0 0 0 2.9-2.901zm-87.892-181.254a2.902 2.902 0 0 0 0-4.102l-21.102-21.102a2.9 2.9 0 0 0-2.051-.849h-.017a2.898 2.898 0 0 0-2.058.874l-18.556 19.002-19.026-19.027c-.548-.548-1.268-.811-2.068-.849a2.898 2.898 0 0 0-2.058.874l-18.557 19.002-19.026-19.027c-1.088-1.087-3.014-1.087-4.102 0l-20.606 20.607a2.902 2.902 0 0 0 0 4.102 2.902 2.902 0 0 0 4.102 0l18.556-18.557 19.05 19.051a2.898 2.898 0 0 0 4.126-.025l18.557-19.002 19.026 19.027a2.898 2.898 0 0 0 4.126-.025l18.556-19.002 19.026 19.027c.566.566 1.309.849 2.051.849s1.485-.282 2.051-.848zm-9.348 245.424a2.902 2.902 0 0 0 1.67-1.853l17.827-17.827 19.051 19.051a2.9 2.9 0 1 0 4.102-4.102l-21.102-21.102c-1.088-1.088-3.014-1.088-4.102 0l-18.803 18.804-18.803-18.804c-1.088-1.088-3.014-1.088-4.102 0l-18.803 18.804-18.803-18.804c-1.088-1.088-3.014-1.088-4.102 0L49.772 447.24a2.9 2.9 0 1 0 4.102 4.102l18.556-18.557 19.05 19.051a2.902 2.902 0 1 0 4.831-1.224l17.827-17.827 19.05 19.051a2.9 2.9 0 0 0 3.16.63zm147.371-25.098c0-15.779-12.838-28.617-28.618-28.617-15.779 0-28.617 12.838-28.617 28.617 0 15.78 12.837 28.618 28.617 28.618 15.78 0 28.618-12.838 28.618-28.618zm-5.801 0c0 12.582-10.235 22.817-22.817 22.817-12.581 0-22.817-10.235-22.817-22.817 0-12.581 10.236-22.816 22.817-22.816 12.582 0 22.817 10.235 22.817 22.816zm-175.623-48.843c0-15.78-12.837-28.618-28.617-28.618-15.779 0-28.617 12.838-28.617 28.618 0 15.779 12.837 28.617 28.617 28.617 15.78.001 28.617-12.837 28.617-28.617zm-5.799 0c0 12.581-10.236 22.816-22.817 22.816s-22.817-10.235-22.817-22.816c0-12.582 10.236-22.817 22.817-22.817s22.817 10.235 22.817 22.817zm140.352 99.387a2.9 2.9 0 0 0-.628-3.16l-44.484-44.483h12.246a2.9 2.9 0 0 0 0-5.8h-19.247a2.9 2.9 0 0 0-2.051 4.951l44.484 44.483H104.74a2.9 2.9 0 0 0 0 5.8h129.429a2.9 2.9 0 0 0 2.679-1.791zM226.191 257.58a2.9 2.9 0 0 0-2.9-2.9H18.522a2.9 2.9 0 1 0 0 5.8h204.77a2.9 2.9 0 0 0 2.899-2.9zm30.959 171.837c.55-.55.85-1.27.85-2.05 0-.76-.31-1.51-.85-2.05-1.08-1.08-3.02-1.08-4.1 0-.54.54-.85 1.29-.85 2.05 0 .78.3 1.5.85 2.05s1.28.85 2.05.85c.78 0 1.5-.3 2.05-.85zm222.108-282.711a2.9 2.9 0 0 0 0-4.102l-90.999-90.999c-1.088-1.087-3.014-1.087-4.102 0L355.474 80.29a2.9 2.9 0 0 0-.013 4.088l25.717 26.047a2.9 2.9 0 0 0 2.055.862h.009a2.9 2.9 0 0 0 2.051-.849l16.814-16.815a2.9 2.9 0 1 0-4.102-4.102l-14.751 14.751-21.642-21.919 24.596-24.597 88.948 88.949c.566.566 1.309.849 2.051.849s1.484-.282 2.051-.848zm-303.824-16.65l114.17-114.171 53.34 53.34a2.9 2.9 0 1 0 4.102-4.102l-55.391-55.39c-1.088-1.087-3.014-1.087-4.102 0l-116.22 116.222a2.902 2.902 0 0 0 2.051 4.951c.742 0 1.484-.284 2.05-.85zm121.991 17.804l49.621-49.621a2.9 2.9 0 1 0-4.102-4.102l-49.621 49.621a2.9 2.9 0 1 0 4.102 4.102zm22.915 56.215l77.729-77.729a2.9 2.9 0 1 0-4.102-4.102l-75.678 75.678-61.038-61.039c-1.088-1.087-3.014-1.087-4.102 0l-61.038 61.039-75.678-75.678a2.902 2.902 0 0 0-4.102 0 2.902 2.902 0 0 0 0 4.102l77.729 77.729c1.088 1.087 3.014 1.087 4.102 0l61.038-61.039 61.038 61.039a2.903 2.903 0 0 0 4.102 0zm-117.091 28.612a2.9 2.9 0 0 0-2.9-2.9h-56.995a2.9 2.9 0 1 0 0 5.8h56.995a2.9 2.9 0 0 0 2.9-2.9zm166.116 0a2.9 2.9 0 0 0-2.9-2.9h-56.993a2.9 2.9 0 1 0 0 5.8h56.993a2.9 2.9 0 0 0 2.9-2.9zm-10.779 157.66l84.075-84.075a2.9 2.9 0 1 0-4.102-4.102l-83.226 83.225h-75.621a2.9 2.9 0 0 0 0 5.8h76.822a2.894 2.894 0 0 0 2.052-.848zm-101.459-6.256l25.51-25.288h74.887a2.9 2.9 0 0 0 0-5.8h-76.08c-.765 0-1.498.303-2.042.841l-24.308 24.097-24.087-24.088a2.901 2.901 0 0 0-2.051-.85h-76.08a2.9 2.9 0 0 0 0 5.8h74.879l25.279 25.279c.566.566 1.309.85 2.051.85.739 0 1.477-.281 2.042-.841zm111.68-177.049l19.026-19.027 18.556 19.002a2.906 2.906 0 0 0 2.058.874 2.927 2.927 0 0 0 2.068-.849l19.025-19.027 18.557 19.002a2.906 2.906 0 0 0 2.058.874h.018a2.9 2.9 0 0 0 2.051-.849l19.05-19.051 18.556 18.557a2.9 2.9 0 1 0 4.102-4.102l-20.606-20.607c-1.088-1.087-3.014-1.087-4.102 0l-19.025 19.027-18.557-19.002a2.906 2.906 0 0 0-2.058-.874 2.924 2.924 0 0 0-2.068.849l-19.025 19.026-18.556-19.002a2.906 2.906 0 0 0-2.058-.874 2.954 2.954 0 0 0-2.068.849l-21.102 21.102a2.9 2.9 0 0 0 4.1 4.102zm50.115 244.795l19.051-19.051 18.556 18.557a2.9 2.9 0 1 0 4.102-4.102l-20.606-20.607a2.9 2.9 0 0 0-4.102 0l-18.804 18.804-18.803-18.804a2.9 2.9 0 0 0-4.102 0l-18.804 18.804-18.803-18.804a2.9 2.9 0 0 0-4.102 0l-21.102 21.102a2.9 2.9 0 1 0 4.102 4.102l19.051-19.051 17.827 17.827a2.9 2.9 0 0 0 4.83 1.224l19.051-19.051 17.827 17.827a2.904 2.904 0 0 0 2.778 2.074 2.91 2.91 0 0 0 2.053-.851zM268.03 600.246c0-7.129-5.8-12.93-12.929-12.93-7.129 0-12.929 5.801-12.929 12.93s5.8 12.929 12.929 12.929c7.129 0 12.929-5.8 12.929-12.929zm-5.801 0c0 3.931-3.198 7.128-7.128 7.128s-7.129-3.197-7.129-7.128 3.198-7.129 7.129-7.129 7.128 3.198 7.128 7.129zM465.34 378.525c0-15.78-12.838-28.618-28.617-28.618s-28.617 12.838-28.617 28.618c0 15.779 12.838 28.617 28.617 28.617s28.617-12.837 28.617-28.617zm-5.801 0c0 12.581-10.235 22.816-22.816 22.816s-22.816-10.235-22.816-22.816c0-12.582 10.235-22.817 22.816-22.817s22.816 10.235 22.816 22.817zm-50.977 98.278a2.9 2.9 0 0 0-2.9-2.9H283.233l44.483-44.483a2.902 2.902 0 0 0-2.051-4.951H306.42a2.9 2.9 0 0 0 0 5.8h12.245l-44.483 44.483a2.902 2.902 0 0 0 2.051 4.951h129.429a2.9 2.9 0 0 0 2.9-2.9zm86.217-219.223a2.9 2.9 0 0 0-2.9-2.9h-204.77a2.9 2.9 0 1 0 0 5.8h204.77a2.901 2.901 0 0 0 2.9-2.9zm-150.84 312.862a2.9 2.9 0 0 0-2.9-2.9H169.362a2.9 2.9 0 0 0 0 5.8h171.677a2.899 2.899 0 0 0 2.9-2.9zm-87.45-319.344l31.96-15.845a2.899 2.899 0 0 0 .711-4.623l-31.885-31.885a2.947 2.947 0 0 0-2.063-.849c-.739.021-1.493.28-2.062.849l-31.751 31.75a2.898 2.898 0 0 0 .605 4.796l31.885 15.807c.4.199.865.302 1.312.302s.887-.103 1.288-.302zm-1.277-46.213l26.992 26.992-27.015 13.393-26.984-13.377 27.007-27.008z"/></svg>