<svg xmlns="http://www.w3.org/2000/svg" width="512" height="621.205" viewBox="0 0 512 621.205"><path fill="none" stroke="#F1EFEA" stroke-width="5.8" stroke-linecap="round" stroke-linejoin="round" stroke-miterlimit="10" d="M33.194 144.655l90.999-90.999 28.684 28.685-25.717 26.047-16.815-16.815M165.406 67.174l55.391-55.39 116.221 116.221M165.406 96.188l49.621 49.621M69.791 304.221l84.075 84.075h76.822M18.522 204.497l20.607-20.607 21.101 21.101 20.606-21.101 21.102 21.101 20.606-21.101 21.101 21.101M51.822 449.292l20.607-20.607 21.101 21.101v-.494l20.607-20.607 21.101 21.101v-.494l20.606-20.607 21.102 21.101"/><circle fill="none" stroke="#F1EFEA" stroke-width="5.8" stroke-linecap="round" stroke-linejoin="round" stroke-miterlimit="10" cx="255.101" cy="427.368" r="25.717"/><circle fill="none" stroke="#F1EFEA" stroke-width="5.8" stroke-linecap="round" stroke-linejoin="round" stroke-miterlimit="10" cx="73.678" cy="378.525" r="25.717"/><path fill="none" stroke="#F1EFEA" stroke-width="5.8" stroke-linecap="round" stroke-linejoin="round" stroke-miterlimit="10" d="M203.982 427.368h-19.247l49.434 49.435H104.74M223.291 257.58H18.522M477.207 144.655l-90.999-90.999-28.684 28.685 25.717 26.047 16.815-16.815M344.995 67.174l-55.39-55.39-116.222 116.221M344.995 96.188l-49.621 49.621"/><path fill="none" stroke="#F1EFEA" stroke-width="5.8" stroke-linecap="round" stroke-linejoin="round" stroke-miterlimit="10" d="M396.017 124.296l-16.073 16.073-61.655 61.655-63.088-63.088-63.089 63.088-61.655-61.655-16.073-16.073M200.349 232.687h-56.995M366.465 232.687h-56.994M440.61 304.221l-84.075 84.075h-76.822"/><path fill="none" stroke="#F1EFEA" stroke-width="5.8" stroke-linecap="round" stroke-linejoin="round" stroke-miterlimit="10" d="M357.524 355.902h-76.08l-26.358 26.13-26.129-26.13h-76.08M491.879 204.497l-20.606-20.607-21.102 21.101-20.606-21.101-21.101 21.101-20.607-21.101-21.101 21.101M458.579 449.292l-20.607-20.607-21.101 21.101v-.494l-20.607-20.607-21.101 21.101v-.494l-20.606-20.607-21.102 21.101"/><circle fill="none" stroke="#F1EFEA" stroke-width="5.8" stroke-linecap="round" stroke-linejoin="round" stroke-miterlimit="10" cx="255.101" cy="600.246" r="10.029"/><circle fill="none" stroke="#F1EFEA" stroke-width="5.8" stroke-linecap="round" stroke-linejoin="round" stroke-miterlimit="10" cx="436.723" cy="378.525" r="25.717"/><path fill="none" stroke="#F1EFEA" stroke-width="5.8" stroke-linecap="round" stroke-linejoin="round" stroke-miterlimit="10" d="M306.42 427.368h19.246l-49.434 49.435h129.429M287.11 257.58h204.769M341.039 570.443H169.362"/><g fill="#F1EFEA"><path d="M153.307 341.76c-1.873 0-2.809-.546-2.731-1.404l.546-10.064c-3.979.937-7.568 1.482-11.781 1.482-16.384 0-24.03-9.83-24.03-23.874 0-10.766 6.242-26.058 26.214-26.058 6.319 0 11 .702 13.575 1.794 1.092.468 1.404 1.015.702 2.653-.937 2.185-1.873 3.121-2.887 2.809-2.809-.78-6.788-1.404-11-1.404-15.214 0-20.207 11.157-20.207 20.051 0 11.858 6.397 18.49 17.788 18.49 4.135 0 7.568-.546 11.859-1.717l.78-12.404c.156-1.092.936-1.639 3.277-1.639 2.34 0 2.809.312 2.73 1.326l-1.56 28.087c-.077 1.091-1.403 1.872-3.275 1.872zM207.369 330.993c-.468-1.404-.937-2.887-1.404-4.291-6.397 3.121-14.667 4.915-21.377 4.915-8.816 0-18.491-3.666-18.491-16.228 0-10.298 11.001-16.852 25.434-20.05-1.95-3.433-4.057-6.788-6.164-10.143-.624-.858-.39-2.028 1.794-2.887 2.185-.936 3.355-.546 3.901.39 9.128 14.355 17.008 30.583 21.767 45.406.39 1.171 0 2.029-1.95 2.965-2.106.782-3.276.703-3.51-.077zm-3.199-9.05c-2.731-7.1-6.085-14.355-9.831-21.377-13.107 2.73-22.079 7.49-22.079 14.667 0 7.725 6.085 10.923 13.107 10.923 3.668 0 10.689-.858 18.803-4.213zM221.719 322.724c2.73 1.17 8.582 3.276 15.213 3.276 10.143 0 12.951-3.667 12.951-8.426 0-13.263-29.803-4.213-29.803-22.235 0-9.05 7.568-13.263 19.583-13.263 6.476 0 11.391 1.014 15.058 2.575 1.092.39 1.639 1.092 1.014 2.652-.936 2.575-2.262 2.965-3.589 2.653-3.276-1.092-7.724-2.106-12.717-2.106-8.192 0-12.795 2.34-12.795 7.49 0 11.546 29.803 3.042 29.803 22.235 0 8.426-6.085 14.121-19.348 14.121-7.724 0-14.902-2.262-17.788-3.822-1.17-.624-1.717-1.561-.78-3.667.78-1.718 1.95-1.951 3.198-1.483zM302.229 330.447l-16.617-28.243-11.391 8.504-.312 18.802c0 1.093-1.482 1.873-3.433 1.873-2.028 0-2.965-.546-2.965-1.482l1.015-55.315c0-1.092 1.014-1.873 3.354-1.873s3.043.546 3.043 1.482l-.547 29.257 28.165-20.987c1.092-.858 2.809-1.014 4.369 0 1.95 1.326 1.794 2.73.624 3.589l-16.618 12.405 17.632 29.881c.625 1.093.547 2.106-1.56 2.809-2.885 1.015-4.056.468-4.759-.702zM338.035 331.773c-15.915 0-24.419-9.284-24.419-23.951 0-11.079 6.085-25.98 26.058-25.98 5.228 0 9.752.546 12.249 1.639 1.17.546 1.482 1.092.858 2.73-.937 2.185-2.028 2.965-3.043 2.731a42.211 42.211 0 0 0-10.064-1.249c-13.185 0-18.022 7.88-19.427 14.979h26.839c.936 0 1.482.39 1.482 2.418 0 2.106-.78 3.277-1.795 3.277h-26.994c.234 10.454 5.695 17.632 18.803 17.632 4.603 0 7.724-.857 10.767-1.872.936-.312 1.638.234 2.184 1.482.78 2.263.469 3.276-.546 3.823-3.121 1.406-7.334 2.341-12.952 2.341zM378.758 331.695c-12.717 0-16.54-4.603-16.384-11.624l1.092-45.173c0-1.249 1.015-1.794 3.745-2.106 1.794-.234 2.418.234 2.418 1.482l-.155 8.114h23.562c.78 0 1.404.312 1.404 2.185 0 2.106-.702 3.433-1.561 3.433h-23.562l-.624 30.739c-.156 4.838 2.263 7.334 10.767 7.334 5.071 0 11.312-1.482 13.419-1.95.937-.234 1.794.312 2.028 1.95.39 2.575-.078 3.355-1.326 3.745-2.574.701-8.192 1.871-14.823 1.871z"/></g><g fill="#F1EFEA"><path d="M83.973 545.048c-1.951 0-2.575-1.794-1.249-2.965l7.1-6.709c12.171-11.547 18.568-17.086 18.568-23.952 0-5.93-4.837-7.334-9.284-7.334-5.383 0-9.986 1.093-13.341 2.106-1.249.312-2.106.078-2.575-1.56-.39-2.029-.156-3.043.936-3.589 3.043-1.326 8.66-2.809 15.448-2.809 7.724 0 15.213 2.652 15.213 12.561 0 9.05-7.178 15.604-19.583 27.15l-1.716 1.561h22.313c1.092 0 1.56.702 1.56 2.34 0 1.951-.702 3.199-2.028 3.199H83.973zM138.425 550.899c0-1.873.936-2.263 2.262-2.341 4.057-.078 7.646-.702 10.298-1.717-9.518-12.248-14.667-24.419-14.667-34.016 0-8.27 4.369-19.192 26.838-19.192 1.249 0 2.106 1.015 2.106 3.199 0 1.872-.936 2.34-2.34 2.418-4.291 0-8.114.702-10.845 1.873 9.597 12.404 14.355 24.107 14.355 33.625 0 8.114-3.901 19.037-25.98 19.193-1.247.001-2.027-.857-2.027-3.042zm18.022-6.319c3.277-2.653 4.057-6.086 4.057-9.44 0-8.738-4.681-19.738-14.043-31.987-3.199 2.418-4.213 6.085-4.213 9.362 0 8.582 4.836 19.738 14.199 32.065zM206.452 498.237c12.639 0 19.583 9.752 19.583 22.547 0 13.341-7.1 24.81-20.285 24.81-12.873 0-19.583-10.376-19.583-23.327 0-10.299 5.227-24.03 20.285-24.03zm-10.377 37.059l15.916-30.271c-1.561-.78-3.433-1.17-5.54-1.17-9.05 0-13.965 8.66-13.965 18.49 0 5.304 1.249 9.83 3.589 12.951zm23.718-14.356c0-5.149-1.17-9.44-3.433-12.405l-15.994 30.35c1.639.78 3.433 1.17 5.461 1.17 9.051 0 13.966-9.285 13.966-19.115zM247.717 550.899c0-1.873.936-2.263 2.262-2.341 4.057-.078 7.646-.702 10.299-1.717-9.519-12.248-14.667-24.419-14.667-34.016 0-8.27 4.369-19.192 26.838-19.192 1.248 0 2.106 1.015 2.106 3.199 0 1.872-.937 2.34-2.341 2.418-4.291 0-8.114.702-10.845 1.873 9.597 12.404 14.355 24.107 14.355 33.625 0 8.114-3.9 19.037-25.98 19.193-1.246.001-2.027-.857-2.027-3.042zm18.022-6.319c3.276-2.653 4.057-6.086 4.057-9.44 0-8.738-4.681-19.738-14.043-31.987-3.199 2.418-4.213 6.085-4.213 9.362 0 8.582 4.837 19.738 14.199 32.065zM296.396 545.048c-1.092 0-1.638-.702-1.638-2.341 0-1.794.702-3.198 1.95-3.198h10.22l.625-34.952h-11.859c-1.092 0-1.561-.937-1.561-2.653 0-1.872.702-3.12 1.951-3.12h16.149c1.404 0 1.717.78 1.717 1.872l-.625 38.854h10.611c1.17 0 1.56.624 1.56 2.263 0 1.872-.702 3.276-1.95 3.276h-27.15zM343.358 550.899c0-1.873.937-2.263 2.263-2.341 4.057-.078 7.646-.702 10.299-1.717-9.519-12.248-14.668-24.419-14.668-34.016 0-8.27 4.369-19.192 26.839-19.192 1.248 0 2.106 1.015 2.106 3.199 0 1.872-.937 2.34-2.341 2.418-4.291 0-8.114.702-10.845 1.873 9.597 12.404 14.355 24.107 14.355 33.625 0 8.114-3.9 19.037-25.979 19.193-1.248.001-2.029-.857-2.029-3.042zm18.023-6.319c3.277-2.653 4.057-6.086 4.057-9.44 0-8.738-4.681-19.738-14.043-31.987-3.198 2.418-4.213 6.085-4.213 9.362 0 8.582 4.837 19.738 14.199 32.065zM390.165 530.146c0-12.405 9.908-26.448 16.071-33.002 1.249-1.326 2.497-1.716 4.291-.937 1.951.858 2.419 2.107 1.482 3.121-4.291 4.837-8.426 10.143-11.469 16.149 2.887-1.092 6.242-1.716 10.221-1.716 10.688 0 16.384 5.149 16.384 14.901 0 10.143-6.397 16.93-19.583 16.93-8.737.002-17.397-3.899-17.397-15.446zm30.817-1.092c0-7.411-5.384-10.063-12.016-10.063-5.07 0-8.035.702-9.596 2.106-2.185 1.716-3.043 5.148-3.043 9.361 0 7.412 5.773 9.831 11.859 9.831 7.881 0 12.796-3.589 12.796-11.235z"/></g><path fill="none" stroke="#F1EFEA" stroke-width="5.8" stroke-linecap="round" stroke-linejoin="round" stroke-miterlimit="10" d="M255.201 200.795l-31.886 31.886-.024.012 31.886 15.807h.024l31.885-15.807.024-.012-31.886-31.886"/></svg>