<svg xmlns="http://www.w3.org/2000/svg" width="512" height="621.205" viewBox="0 0 512 621.205"><path fill="#F1EFEA" d="M33.194 147.555a2.902 2.902 0 0 1-2.051-4.951l90.999-90.999c1.088-1.087 3.014-1.087 4.102 0l28.684 28.685a2.9 2.9 0 0 1 .013 4.088l-25.717 26.047a2.899 2.899 0 0 1-2.054.862h-.009a2.9 2.9 0 0 1-2.051-.849l-16.815-16.815a2.902 2.902 0 0 1 0-4.102 2.902 2.902 0 0 1 4.102 0l14.751 14.751 21.642-21.919-24.596-24.597-88.948 88.949c-.568.567-1.31.85-2.052.85zM337.018 130.905a2.894 2.894 0 0 1-2.051-.849L220.796 15.885l-53.34 53.34a2.902 2.902 0 0 1-4.102 0 2.902 2.902 0 0 1 0-4.102l55.391-55.391c1.088-1.087 3.014-1.087 4.102 0l116.221 116.222a2.9 2.9 0 0 1-2.05 4.951zM215.027 148.709a2.894 2.894 0 0 1-2.051-.849l-49.621-49.621a2.902 2.902 0 0 1 0-4.102 2.902 2.902 0 0 1 4.102 0l49.621 49.621a2.902 2.902 0 0 1-2.051 4.951zM230.688 391.196h-76.822a2.901 2.901 0 0 1-2.051-.85L67.74 306.272a2.902 2.902 0 0 1 0-4.102 2.902 2.902 0 0 1 4.102 0l83.226 83.225h75.621a2.9 2.9 0 1 1-.001 5.801zM143.646 207.892a2.894 2.894 0 0 1-2.051-.849l-19.026-19.027-18.556 19.002a2.904 2.904 0 0 1-2.058.874 2.93 2.93 0 0 1-2.068-.849l-19.026-19.027-18.557 19.002a2.904 2.904 0 0 1-4.126.025l-19.05-19.051-18.556 18.557a2.902 2.902 0 0 1-4.102 0 2.902 2.902 0 0 1 0-4.102l20.606-20.607c1.088-1.087 3.014-1.087 4.102 0l19.026 19.027 18.557-19.002a2.904 2.904 0 0 1 2.058-.874c.8.038 1.52.301 2.068.849l19.026 19.027 18.556-19.002a2.904 2.904 0 0 1 2.058-.874h.017c.769 0 1.506.305 2.051.849l21.102 21.102a2.902 2.902 0 0 1 0 4.102 2.901 2.901 0 0 1-2.051.848zM135.238 452.686a2.9 2.9 0 0 1-2.051-.85l-19.05-19.051-17.827 17.828a2.905 2.905 0 0 1-1.67 1.853 2.904 2.904 0 0 1-3.161-.629l-19.05-19.051-18.556 18.557a2.9 2.9 0 1 1-4.102-4.102l20.606-20.607c1.088-1.088 3.014-1.088 4.102 0l18.803 18.804 18.803-18.804c1.088-1.088 3.014-1.088 4.102 0l18.803 18.804 18.803-18.804c1.088-1.088 3.014-1.088 4.102 0l21.102 21.102a2.9 2.9 0 1 1-4.102 4.102l-19.051-19.051-17.827 17.827a2.905 2.905 0 0 1-1.67 1.853 2.919 2.919 0 0 1-1.109.219zM255.101 455.986c-15.779 0-28.617-12.838-28.617-28.618 0-15.779 12.837-28.617 28.617-28.617 15.78 0 28.618 12.838 28.618 28.617 0 15.78-12.838 28.618-28.618 28.618zm0-51.434c-12.581 0-22.817 10.235-22.817 22.816 0 12.582 10.236 22.817 22.817 22.817 12.582 0 22.817-10.235 22.817-22.817 0-12.581-10.235-22.816-22.817-22.816zM73.678 407.143c-15.779 0-28.617-12.838-28.617-28.617 0-15.78 12.837-28.618 28.617-28.618 15.78 0 28.617 12.838 28.617 28.618 0 15.779-12.837 28.617-28.617 28.617zm0-51.435c-12.581 0-22.817 10.235-22.817 22.817 0 12.581 10.236 22.816 22.817 22.816 12.582 0 22.817-10.235 22.817-22.816.001-12.582-10.235-22.817-22.817-22.817z"/><path fill="#F1EFEA" d="M234.169 479.703H104.74a2.9 2.9 0 0 1 0-5.8h122.428l-44.484-44.483a2.9 2.9 0 0 1 2.051-4.951h19.247a2.9 2.9 0 0 1 0 5.8h-12.246l44.484 44.483a2.9 2.9 0 0 1-2.051 4.951zM223.292 260.479H18.522a2.9 2.9 0 1 1 0-5.8h204.77a2.9 2.9 0 1 1 0 5.8zM255.1 430.267c-.77 0-1.5-.3-2.05-.85s-.85-1.27-.85-2.05c0-.76.31-1.51.85-2.05 1.08-1.08 3.02-1.08 4.1 0 .54.54.85 1.29.85 2.05 0 .78-.3 1.5-.85 2.05-.55.55-1.27.85-2.05.85zM477.207 147.555a2.894 2.894 0 0 1-2.051-.849l-88.948-88.949-24.596 24.597 21.642 21.919 14.751-14.751a2.9 2.9 0 1 1 4.102 4.102l-16.814 16.815a2.9 2.9 0 0 1-2.051.849h-.009a2.9 2.9 0 0 1-2.055-.862l-25.717-26.047a2.9 2.9 0 0 1 .013-4.088l28.684-28.685c1.088-1.087 3.014-1.087 4.102 0l90.999 90.999a2.9 2.9 0 0 1-2.052 4.95zM173.383 130.905a2.902 2.902 0 0 1-2.051-4.951L287.554 9.733c1.088-1.087 3.014-1.087 4.102 0l55.391 55.391a2.9 2.9 0 1 1-4.102 4.102l-53.34-53.34-114.17 114.171a2.9 2.9 0 0 1-2.052.848zM295.374 148.709a2.9 2.9 0 0 1-2.051-4.951l49.621-49.621a2.9 2.9 0 1 1 4.102 4.102l-49.621 49.621a2.894 2.894 0 0 1-2.051.849z"/><path fill="#F1EFEA" d="M318.289 204.924c-.77 0-1.507-.306-2.051-.849L255.2 143.036l-61.038 61.039c-1.088 1.087-3.014 1.087-4.102 0l-77.729-77.729a2.902 2.902 0 0 1 0-4.102 2.902 2.902 0 0 1 4.102 0l75.678 75.678 61.038-61.039c1.088-1.087 3.014-1.087 4.102 0l61.038 61.039 75.678-75.678a2.9 2.9 0 1 1 4.102 4.102l-77.729 77.729a2.899 2.899 0 0 1-2.051.849zM200.349 235.587h-56.995a2.9 2.9 0 1 1 0-5.8h56.995a2.9 2.9 0 1 1 0 5.8zM366.465 235.587h-56.993a2.9 2.9 0 1 1 0-5.8h56.993a2.9 2.9 0 1 1 0 5.8zM356.535 391.196h-76.822a2.9 2.9 0 0 1 0-5.8h75.621l83.226-83.225a2.9 2.9 0 1 1 4.102 4.102l-84.075 84.075a2.906 2.906 0 0 1-2.052.848z"/><path fill="#F1EFEA" d="M255.086 384.932a2.89 2.89 0 0 1-2.051-.85l-25.279-25.279h-74.879a2.9 2.9 0 0 1 0-5.8h76.08c.769 0 1.507.306 2.051.85l24.087 24.088 24.308-24.097a2.904 2.904 0 0 1 2.042-.841h76.08a2.9 2.9 0 0 1 0 5.8h-74.887l-25.51 25.288a2.896 2.896 0 0 1-2.042.841zM366.756 207.892a2.9 2.9 0 0 1-2.051-4.951l21.102-21.102a2.957 2.957 0 0 1 2.068-.849 2.9 2.9 0 0 1 2.058.874l18.556 19.002 19.025-19.026a2.9 2.9 0 0 1 4.126.025l18.557 19.002 19.025-19.027c1.088-1.087 3.014-1.087 4.102 0l20.606 20.607a2.9 2.9 0 1 1-4.102 4.102l-18.556-18.557-19.05 19.051a2.9 2.9 0 0 1-2.051.849h-.018a2.9 2.9 0 0 1-2.058-.874l-18.557-19.002-19.025 19.027a2.9 2.9 0 0 1-4.126-.025l-18.556-19.002-19.026 19.027a2.89 2.89 0 0 1-2.049.849zM416.87 452.686a2.902 2.902 0 0 1-2.778-2.074l-17.827-17.827-19.051 19.051a2.9 2.9 0 0 1-4.83-1.224l-17.827-17.827-19.051 19.051a2.9 2.9 0 1 1-4.102-4.102l21.102-21.102a2.9 2.9 0 0 1 4.102 0l18.803 18.804 18.804-18.804a2.9 2.9 0 0 1 4.102 0l18.803 18.804 18.804-18.804a2.9 2.9 0 0 1 4.102 0l20.606 20.607a2.9 2.9 0 1 1-4.102 4.102l-18.556-18.557-19.051 19.051a2.897 2.897 0 0 1-2.053.851zM255.101 613.175c-7.129 0-12.929-5.8-12.929-12.929s5.8-12.93 12.929-12.93c7.129 0 12.929 5.801 12.929 12.93s-5.8 12.929-12.929 12.929zm0-20.058c-3.931 0-7.129 3.198-7.129 7.129s3.198 7.128 7.129 7.128 7.128-3.197 7.128-7.128-3.197-7.129-7.128-7.129zM436.723 407.143c-15.779 0-28.617-12.838-28.617-28.617 0-15.78 12.838-28.618 28.617-28.618s28.617 12.838 28.617 28.618c0 15.779-12.838 28.617-28.617 28.617zm0-51.435c-12.581 0-22.816 10.235-22.816 22.817 0 12.581 10.235 22.816 22.816 22.816s22.816-10.235 22.816-22.816c0-12.582-10.235-22.817-22.816-22.817z"/><path fill="#F1EFEA" d="M405.661 479.703H276.232a2.902 2.902 0 0 1-2.051-4.951l44.483-44.483H306.42a2.9 2.9 0 0 1 0-5.8h19.246a2.902 2.902 0 0 1 2.051 4.951l-44.483 44.483h122.428a2.9 2.9 0 1 1-.001 5.8zM491.879 260.479h-204.77a2.9 2.9 0 1 1 0-5.8h204.77a2.9 2.9 0 1 1 0 5.8zM341.039 573.343H169.362a2.9 2.9 0 0 1 0-5.8h171.677a2.9 2.9 0 0 1 0 5.8zM255.201 251.4c-.447 0-.912-.103-1.312-.302l-31.885-15.807a2.9 2.9 0 0 1-.605-4.796l31.751-31.75c.569-.569 1.323-.829 2.062-.849.724 0 1.494.28 2.063.849l31.885 31.885a2.9 2.9 0 0 1-.711 4.623l-31.96 15.845a2.898 2.898 0 0 1-1.288.302zm-26.996-19.508l26.984 13.377 27.015-13.393-26.992-26.992-27.007 27.008z"/></svg>