<svg xmlns="http://www.w3.org/2000/svg" width="512" height="621.205" viewBox="0 0 512 621.205"><path fill="#F1EFEA" d="M33.194 147.555a2.902 2.902 0 0 1-2.051-4.951l90.999-90.999c1.088-1.087 3.014-1.087 4.102 0l28.684 28.685a2.9 2.9 0 0 1 .013 4.088l-25.717 26.047a2.899 2.899 0 0 1-2.054.862h-.009a2.9 2.9 0 0 1-2.051-.849l-16.815-16.815a2.902 2.902 0 0 1 0-4.102 2.902 2.902 0 0 1 4.102 0l14.751 14.751 21.642-21.919-24.596-24.597-88.948 88.949c-.568.567-1.31.85-2.052.85zM337.018 130.905a2.894 2.894 0 0 1-2.051-.849L220.796 15.885l-53.34 53.34a2.902 2.902 0 0 1-4.102 0 2.902 2.902 0 0 1 0-4.102l55.391-55.391c1.088-1.087 3.014-1.087 4.102 0l116.221 116.222a2.9 2.9 0 0 1-2.05 4.951zM215.027 148.709a2.894 2.894 0 0 1-2.051-.849l-49.621-49.621a2.902 2.902 0 0 1 0-4.102 2.902 2.902 0 0 1 4.102 0l49.621 49.621a2.902 2.902 0 0 1-2.051 4.951zM230.688 391.196h-76.822a2.901 2.901 0 0 1-2.051-.85L67.74 306.272a2.902 2.902 0 0 1 0-4.102 2.902 2.902 0 0 1 4.102 0l83.226 83.225h75.621a2.9 2.9 0 1 1-.001 5.801zM143.646 207.892a2.894 2.894 0 0 1-2.051-.849l-19.026-19.027-18.556 19.002a2.904 2.904 0 0 1-2.058.874 2.93 2.93 0 0 1-2.068-.849l-19.026-19.027-18.557 19.002a2.904 2.904 0 0 1-4.126.025l-19.05-19.051-18.556 18.557a2.902 2.902 0 0 1-4.102 0 2.902 2.902 0 0 1 0-4.102l20.606-20.607c1.088-1.087 3.014-1.087 4.102 0l19.026 19.027 18.557-19.002a2.904 2.904 0 0 1 2.058-.874c.8.038 1.52.301 2.068.849l19.026 19.027 18.556-19.002a2.904 2.904 0 0 1 2.058-.874h.017c.769 0 1.506.305 2.051.849l21.102 21.102a2.902 2.902 0 0 1 0 4.102 2.901 2.901 0 0 1-2.051.848zM135.238 452.686a2.9 2.9 0 0 1-2.051-.85l-19.05-19.051-17.827 17.828a2.905 2.905 0 0 1-1.67 1.853 2.904 2.904 0 0 1-3.161-.629l-19.05-19.051-18.556 18.557a2.9 2.9 0 1 1-4.102-4.102l20.606-20.607c1.088-1.088 3.014-1.088 4.102 0l18.803 18.804 18.803-18.804c1.088-1.088 3.014-1.088 4.102 0l18.803 18.804 18.803-18.804c1.088-1.088 3.014-1.088 4.102 0l21.102 21.102a2.9 2.9 0 1 1-4.102 4.102l-19.051-19.051-17.827 17.827a2.905 2.905 0 0 1-1.67 1.853 2.919 2.919 0 0 1-1.109.219zM255.101 455.986c-15.779 0-28.617-12.838-28.617-28.618 0-15.779 12.837-28.617 28.617-28.617 15.78 0 28.618 12.838 28.618 28.617 0 15.78-12.838 28.618-28.618 28.618zm0-51.434c-12.581 0-22.817 10.235-22.817 22.816 0 12.582 10.236 22.817 22.817 22.817 12.582 0 22.817-10.235 22.817-22.817 0-12.581-10.235-22.816-22.817-22.816zM73.678 407.143c-15.779 0-28.617-12.838-28.617-28.617 0-15.78 12.837-28.618 28.617-28.618 15.78 0 28.617 12.838 28.617 28.618 0 15.779-12.837 28.617-28.617 28.617zm0-51.435c-12.581 0-22.817 10.235-22.817 22.817 0 12.581 10.236 22.816 22.817 22.816 12.582 0 22.817-10.235 22.817-22.816.001-12.582-10.235-22.817-22.817-22.817z"/><path fill="#F1EFEA" d="M234.169 479.703H104.74a2.9 2.9 0 0 1 0-5.8h122.428l-44.484-44.483a2.9 2.9 0 0 1 2.051-4.951h19.247a2.9 2.9 0 0 1 0 5.8h-12.246l44.484 44.483a2.9 2.9 0 0 1-2.051 4.951zM223.292 260.479H18.522a2.9 2.9 0 1 1 0-5.8h204.77a2.9 2.9 0 1 1 0 5.8zM255.1 430.267c-.77 0-1.5-.3-2.05-.85s-.85-1.27-.85-2.05c0-.76.31-1.51.85-2.05 1.08-1.08 3.02-1.08 4.1 0 .54.54.85 1.29.85 2.05 0 .78-.3 1.5-.85 2.05-.55.55-1.27.85-2.05.85zM477.207 147.555a2.894 2.894 0 0 1-2.051-.849l-88.948-88.949-24.596 24.597 21.642 21.919 14.751-14.751a2.9 2.9 0 1 1 4.102 4.102l-16.814 16.815a2.9 2.9 0 0 1-2.051.849h-.009a2.9 2.9 0 0 1-2.055-.862l-25.717-26.047a2.9 2.9 0 0 1 .013-4.088l28.684-28.685c1.088-1.087 3.014-1.087 4.102 0l90.999 90.999a2.9 2.9 0 0 1-2.052 4.95zM173.383 130.905a2.902 2.902 0 0 1-2.051-4.951L287.554 9.733c1.088-1.087 3.014-1.087 4.102 0l55.391 55.391a2.9 2.9 0 1 1-4.102 4.102l-53.34-53.34-114.17 114.171a2.9 2.9 0 0 1-2.052.848zM295.374 148.709a2.9 2.9 0 0 1-2.051-4.951l49.621-49.621a2.9 2.9 0 1 1 4.102 4.102l-49.621 49.621a2.894 2.894 0 0 1-2.051.849z"/><path fill="#F1EFEA" d="M318.289 204.924c-.77 0-1.507-.306-2.051-.849L255.2 143.036l-61.038 61.039c-1.088 1.087-3.014 1.087-4.102 0l-77.729-77.729a2.902 2.902 0 0 1 0-4.102 2.902 2.902 0 0 1 4.102 0l75.678 75.678 61.038-61.039c1.088-1.087 3.014-1.087 4.102 0l61.038 61.039 75.678-75.678a2.9 2.9 0 1 1 4.102 4.102l-77.729 77.729a2.899 2.899 0 0 1-2.051.849zM200.349 235.587h-56.995a2.9 2.9 0 1 1 0-5.8h56.995a2.9 2.9 0 1 1 0 5.8zM366.465 235.587h-56.993a2.9 2.9 0 1 1 0-5.8h56.993a2.9 2.9 0 1 1 0 5.8zM356.535 391.196h-76.822a2.9 2.9 0 0 1 0-5.8h75.621l83.226-83.225a2.9 2.9 0 1 1 4.102 4.102l-84.075 84.075a2.906 2.906 0 0 1-2.052.848z"/><path fill="#F1EFEA" d="M255.086 384.932a2.89 2.89 0 0 1-2.051-.85l-25.279-25.279h-74.879a2.9 2.9 0 0 1 0-5.8h76.08c.769 0 1.507.306 2.051.85l24.087 24.088 24.308-24.097a2.904 2.904 0 0 1 2.042-.841h76.08a2.9 2.9 0 0 1 0 5.8h-74.887l-25.51 25.288a2.896 2.896 0 0 1-2.042.841zM366.756 207.892a2.9 2.9 0 0 1-2.051-4.951l21.102-21.102a2.957 2.957 0 0 1 2.068-.849 2.9 2.9 0 0 1 2.058.874l18.556 19.002 19.025-19.026a2.9 2.9 0 0 1 4.126.025l18.557 19.002 19.025-19.027c1.088-1.087 3.014-1.087 4.102 0l20.606 20.607a2.9 2.9 0 1 1-4.102 4.102l-18.556-18.557-19.05 19.051a2.9 2.9 0 0 1-2.051.849h-.018a2.9 2.9 0 0 1-2.058-.874l-18.557-19.002-19.025 19.027a2.9 2.9 0 0 1-4.126-.025l-18.556-19.002-19.026 19.027a2.89 2.89 0 0 1-2.049.849zM416.87 452.686a2.902 2.902 0 0 1-2.778-2.074l-17.827-17.827-19.051 19.051a2.9 2.9 0 0 1-4.83-1.224l-17.827-17.827-19.051 19.051a2.9 2.9 0 1 1-4.102-4.102l21.102-21.102a2.9 2.9 0 0 1 4.102 0l18.803 18.804 18.804-18.804a2.9 2.9 0 0 1 4.102 0l18.803 18.804 18.804-18.804a2.9 2.9 0 0 1 4.102 0l20.606 20.607a2.9 2.9 0 1 1-4.102 4.102l-18.556-18.557-19.051 19.051a2.897 2.897 0 0 1-2.053.851zM255.101 613.175c-7.129 0-12.929-5.8-12.929-12.929s5.8-12.93 12.929-12.93c7.129 0 12.929 5.801 12.929 12.93s-5.8 12.929-12.929 12.929zm0-20.058c-3.931 0-7.129 3.198-7.129 7.129s3.198 7.128 7.129 7.128 7.128-3.197 7.128-7.128-3.197-7.129-7.128-7.129zM436.723 407.143c-15.779 0-28.617-12.838-28.617-28.617 0-15.78 12.838-28.618 28.617-28.618s28.617 12.838 28.617 28.618c0 15.779-12.838 28.617-28.617 28.617zm0-51.435c-12.581 0-22.816 10.235-22.816 22.817 0 12.581 10.235 22.816 22.816 22.816s22.816-10.235 22.816-22.816c0-12.582-10.235-22.817-22.816-22.817z"/><path fill="#F1EFEA" d="M405.661 479.703H276.232a2.902 2.902 0 0 1-2.051-4.951l44.483-44.483H306.42a2.9 2.9 0 0 1 0-5.8h19.246a2.902 2.902 0 0 1 2.051 4.951l-44.483 44.483h122.428a2.9 2.9 0 1 1-.001 5.8zM491.879 260.479h-204.77a2.9 2.9 0 1 1 0-5.8h204.77a2.9 2.9 0 1 1 0 5.8zM341.039 573.343H169.362a2.9 2.9 0 0 1 0-5.8h171.677a2.9 2.9 0 0 1 0 5.8zM153.307 341.76c-1.873 0-2.809-.546-2.731-1.404l.546-10.064c-3.979.937-7.568 1.482-11.781 1.482-16.384 0-24.03-9.83-24.03-23.874 0-10.766 6.242-26.058 26.214-26.058 6.319 0 11 .702 13.575 1.794 1.092.468 1.404 1.015.702 2.653-.937 2.185-1.873 3.121-2.887 2.809-2.809-.78-6.788-1.404-11-1.404-15.214 0-20.207 11.157-20.207 20.051 0 11.858 6.397 18.49 17.788 18.49 4.135 0 7.568-.546 11.859-1.717l.78-12.404c.156-1.092.936-1.639 3.277-1.639 2.34 0 2.809.312 2.73 1.326l-1.56 28.087c-.077 1.091-1.403 1.872-3.275 1.872zM207.369 330.993c-.468-1.404-.937-2.887-1.404-4.291-6.397 3.121-14.667 4.915-21.377 4.915-8.816 0-18.491-3.666-18.491-16.228 0-10.298 11.001-16.852 25.434-20.05-1.95-3.433-4.057-6.788-6.164-10.143-.624-.858-.39-2.028 1.794-2.887 2.185-.936 3.355-.546 3.901.39 9.128 14.355 17.008 30.583 21.767 45.406.39 1.171 0 2.029-1.95 2.965-2.106.782-3.276.703-3.51-.077zm-3.199-9.05c-2.731-7.1-6.085-14.355-9.831-21.377-13.107 2.73-22.079 7.49-22.079 14.667 0 7.725 6.085 10.923 13.107 10.923 3.668 0 10.689-.858 18.803-4.213zM221.719 322.724c2.73 1.17 8.582 3.276 15.213 3.276 10.143 0 12.951-3.667 12.951-8.426 0-13.263-29.803-4.213-29.803-22.235 0-9.05 7.568-13.263 19.583-13.263 6.476 0 11.391 1.014 15.058 2.575 1.092.39 1.639 1.092 1.014 2.652-.936 2.575-2.262 2.965-3.589 2.653-3.276-1.092-7.724-2.106-12.717-2.106-8.192 0-12.795 2.34-12.795 7.49 0 11.546 29.803 3.042 29.803 22.235 0 8.426-6.085 14.121-19.348 14.121-7.724 0-14.902-2.262-17.788-3.822-1.17-.624-1.717-1.561-.78-3.667.78-1.718 1.95-1.951 3.198-1.483zM302.229 330.447l-16.617-28.243-11.391 8.504-.312 18.802c0 1.093-1.482 1.873-3.433 1.873-2.028 0-2.965-.546-2.965-1.482l1.015-55.315c0-1.092 1.014-1.873 3.354-1.873s3.043.546 3.043 1.482l-.547 29.257 28.165-20.987c1.092-.858 2.809-1.014 4.369 0 1.95 1.326 1.794 2.73.624 3.589l-16.618 12.405 17.632 29.881c.625 1.093.547 2.106-1.56 2.809-2.885 1.015-4.056.468-4.759-.702zM338.035 331.773c-15.915 0-24.419-9.284-24.419-23.951 0-11.079 6.085-25.98 26.058-25.98 5.228 0 9.752.546 12.249 1.639 1.17.546 1.482 1.092.858 2.73-.937 2.185-2.028 2.965-3.043 2.731a42.211 42.211 0 0 0-10.064-1.249c-13.185 0-18.022 7.88-19.427 14.979h26.839c.936 0 1.482.39 1.482 2.418 0 2.106-.78 3.277-1.795 3.277h-26.994c.234 10.454 5.695 17.632 18.803 17.632 4.603 0 7.724-.857 10.767-1.872.936-.312 1.638.234 2.184 1.482.78 2.263.469 3.276-.546 3.823-3.121 1.406-7.334 2.341-12.952 2.341zM378.758 331.695c-12.717 0-16.54-4.603-16.384-11.624l1.092-45.173c0-1.249 1.015-1.794 3.745-2.106 1.794-.234 2.418.234 2.418 1.482l-.155 8.114h23.562c.78 0 1.404.312 1.404 2.185 0 2.106-.702 3.433-1.561 3.433h-23.562l-.624 30.739c-.156 4.838 2.263 7.334 10.767 7.334 5.071 0 11.312-1.482 13.419-1.95.937-.234 1.794.312 2.028 1.95.39 2.575-.078 3.355-1.326 3.745-2.574.701-8.192 1.871-14.823 1.871z"/><g><path fill="#F1EFEA" d="M83.973 545.048c-1.951 0-2.575-1.794-1.249-2.965l7.1-6.709c12.171-11.547 18.568-17.086 18.568-23.952 0-5.93-4.837-7.334-9.284-7.334-5.383 0-9.986 1.093-13.341 2.106-1.249.312-2.106.078-2.575-1.56-.39-2.029-.156-3.043.936-3.589 3.043-1.326 8.66-2.809 15.448-2.809 7.724 0 15.213 2.652 15.213 12.561 0 9.05-7.178 15.604-19.583 27.15l-1.716 1.561h22.313c1.092 0 1.56.702 1.56 2.34 0 1.951-.702 3.199-2.028 3.199H83.973zM138.425 550.899c0-1.873.936-2.263 2.262-2.341 4.057-.078 7.646-.702 10.298-1.717-9.518-12.248-14.667-24.419-14.667-34.016 0-8.27 4.369-19.192 26.838-19.192 1.249 0 2.106 1.015 2.106 3.199 0 1.872-.936 2.34-2.34 2.418-4.291 0-8.114.702-10.845 1.873 9.597 12.404 14.355 24.107 14.355 33.625 0 8.114-3.901 19.037-25.98 19.193-1.247.001-2.027-.857-2.027-3.042zm18.022-6.319c3.277-2.653 4.057-6.086 4.057-9.44 0-8.738-4.681-19.738-14.043-31.987-3.199 2.418-4.213 6.085-4.213 9.362 0 8.582 4.836 19.738 14.199 32.065zM206.452 498.237c12.639 0 19.583 9.752 19.583 22.547 0 13.341-7.1 24.81-20.285 24.81-12.873 0-19.583-10.376-19.583-23.327 0-10.299 5.227-24.03 20.285-24.03zm-10.377 37.059l15.916-30.271c-1.561-.78-3.433-1.17-5.54-1.17-9.05 0-13.965 8.66-13.965 18.49 0 5.304 1.249 9.83 3.589 12.951zm23.718-14.356c0-5.149-1.17-9.44-3.433-12.405l-15.994 30.35c1.639.78 3.433 1.17 5.461 1.17 9.051 0 13.966-9.285 13.966-19.115zM247.717 550.899c0-1.873.936-2.263 2.262-2.341 4.057-.078 7.646-.702 10.299-1.717-9.519-12.248-14.667-24.419-14.667-34.016 0-8.27 4.369-19.192 26.838-19.192 1.248 0 2.106 1.015 2.106 3.199 0 1.872-.937 2.34-2.341 2.418-4.291 0-8.114.702-10.845 1.873 9.597 12.404 14.355 24.107 14.355 33.625 0 8.114-3.9 19.037-25.98 19.193-1.246.001-2.027-.857-2.027-3.042zm18.022-6.319c3.276-2.653 4.057-6.086 4.057-9.44 0-8.738-4.681-19.738-14.043-31.987-3.199 2.418-4.213 6.085-4.213 9.362 0 8.582 4.837 19.738 14.199 32.065zM296.396 545.048c-1.092 0-1.638-.702-1.638-2.341 0-1.794.702-3.198 1.95-3.198h10.22l.625-34.952h-11.859c-1.092 0-1.561-.937-1.561-2.653 0-1.872.702-3.12 1.951-3.12h16.149c1.404 0 1.717.78 1.717 1.872l-.625 38.854h10.611c1.17 0 1.56.624 1.56 2.263 0 1.872-.702 3.276-1.95 3.276h-27.15zM343.358 550.899c0-1.873.937-2.263 2.263-2.341 4.057-.078 7.646-.702 10.299-1.717-9.519-12.248-14.668-24.419-14.668-34.016 0-8.27 4.369-19.192 26.839-19.192 1.248 0 2.106 1.015 2.106 3.199 0 1.872-.937 2.34-2.341 2.418-4.291 0-8.114.702-10.845 1.873 9.597 12.404 14.355 24.107 14.355 33.625 0 8.114-3.9 19.037-25.979 19.193-1.248.001-2.029-.857-2.029-3.042zm18.023-6.319c3.277-2.653 4.057-6.086 4.057-9.44 0-8.738-4.681-19.738-14.043-31.987-3.198 2.418-4.213 6.085-4.213 9.362 0 8.582 4.837 19.738 14.199 32.065zM390.165 530.146c0-12.405 9.908-26.448 16.071-33.002 1.249-1.326 2.497-1.716 4.291-.937 1.951.858 2.419 2.107 1.482 3.121-4.291 4.837-8.426 10.143-11.469 16.149 2.887-1.092 6.242-1.716 10.221-1.716 10.688 0 16.384 5.149 16.384 14.901 0 10.143-6.397 16.93-19.583 16.93-8.737.002-17.397-3.899-17.397-15.446zm30.817-1.092c0-7.411-5.384-10.063-12.016-10.063-5.07 0-8.035.702-9.596 2.106-2.185 1.716-3.043 5.148-3.043 9.361 0 7.412 5.773 9.831 11.859 9.831 7.881 0 12.796-3.589 12.796-11.235z"/></g><g><path fill="#F1EFEA" d="M255.201 251.4c-.447 0-.912-.103-1.312-.302l-31.885-15.807a2.9 2.9 0 0 1-.605-4.796l31.751-31.75c.569-.569 1.323-.829 2.062-.849.724 0 1.494.28 2.063.849l31.885 31.885a2.9 2.9 0 0 1-.711 4.623l-31.96 15.845a2.898 2.898 0 0 1-1.288.302zm-26.996-19.508l26.984 13.377 27.015-13.393-26.992-26.992-27.007 27.008z"/></g></svg>