<svg xmlns="http://www.w3.org/2000/svg" width="512" height="621.205" viewBox="0 0 512 621.205"><path fill="#F1EFEA" d="M33.194 147.555a2.902 2.902 0 0 1-2.051-4.951l90.999-90.999c1.088-1.087 3.014-1.087 4.102 0l28.684 28.685a2.9 2.9 0 0 1 .013 4.088l-25.717 26.047a2.899 2.899 0 0 1-2.054.862h-.009a2.9 2.9 0 0 1-2.051-.849l-16.815-16.815a2.902 2.902 0 0 1 0-4.102 2.902 2.902 0 0 1 4.102 0l14.751 14.751 21.642-21.919-24.596-24.597-88.948 88.949c-.568.567-1.31.85-2.052.85zm305.874-17.499a2.9 2.9 0 0 0 0-4.102L222.847 9.733c-1.088-1.087-3.014-1.087-4.102 0l-55.391 55.391a2.902 2.902 0 0 0 0 4.102 2.902 2.902 0 0 0 4.102 0l53.34-53.34 114.17 114.171c.566.566 1.309.849 2.051.849s1.485-.284 2.051-.85zm-121.99 17.804a2.902 2.902 0 0 0 0-4.102l-49.621-49.621a2.902 2.902 0 0 0-4.102 0 2.902 2.902 0 0 0 0 4.102l49.621 49.621c.566.566 1.309.849 2.051.849s1.484-.283 2.051-.849zm16.51 240.436a2.9 2.9 0 0 0-2.9-2.9h-75.621L71.842 302.17a2.902 2.902 0 0 0-4.102 0 2.902 2.902 0 0 0 0 4.102l84.075 84.075c.544.544 1.282.85 2.051.85h76.822a2.902 2.902 0 0 0 2.9-2.901zm-87.892-181.254a2.902 2.902 0 0 0 0-4.102l-21.102-21.102a2.9 2.9 0 0 0-2.051-.849h-.017a2.898 2.898 0 0 0-2.058.874l-18.556 19.002-19.026-19.027c-.548-.548-1.268-.811-2.068-.849a2.898 2.898 0 0 0-2.058.874l-18.557 19.002-19.026-19.027c-1.088-1.087-3.014-1.087-4.102 0l-20.606 20.607a2.902 2.902 0 0 0 0 4.102 2.902 2.902 0 0 0 4.102 0l18.556-18.557 19.05 19.051a2.898 2.898 0 0 0 4.126-.025l18.557-19.002 19.026 19.027a2.898 2.898 0 0 0 4.126-.025l18.556-19.002 19.026 19.027c.566.566 1.309.849 2.051.849s1.485-.282 2.051-.848zm-9.348 245.424a2.902 2.902 0 0 0 1.67-1.853l17.827-17.827 19.051 19.051a2.9 2.9 0 1 0 4.102-4.102l-21.102-21.102c-1.088-1.088-3.014-1.088-4.102 0l-18.803 18.804-18.803-18.804c-1.088-1.088-3.014-1.088-4.102 0l-18.803 18.804-18.803-18.804c-1.088-1.088-3.014-1.088-4.102 0L49.772 447.24a2.9 2.9 0 1 0 4.102 4.102l18.556-18.557 19.05 19.051a2.902 2.902 0 1 0 4.831-1.224l17.827-17.827 19.05 19.051a2.9 2.9 0 0 0 3.16.63zm147.371-25.098c0-15.779-12.838-28.617-28.618-28.617-15.779 0-28.617 12.838-28.617 28.617 0 15.78 12.837 28.618 28.617 28.618 15.78 0 28.618-12.838 28.618-28.618zm-5.801 0c0 12.582-10.235 22.817-22.817 22.817-12.581 0-22.817-10.235-22.817-22.817 0-12.581 10.236-22.816 22.817-22.816 12.582 0 22.817 10.235 22.817 22.816zm-175.623-48.843c0-15.78-12.837-28.618-28.617-28.618-15.779 0-28.617 12.838-28.617 28.618 0 15.779 12.837 28.617 28.617 28.617 15.78.001 28.617-12.837 28.617-28.617zm-5.799 0c0 12.581-10.236 22.816-22.817 22.816s-22.817-10.235-22.817-22.816c0-12.582 10.236-22.817 22.817-22.817s22.817 10.235 22.817 22.817zm140.352 99.387a2.9 2.9 0 0 0-.628-3.16l-44.484-44.483h12.246a2.9 2.9 0 0 0 0-5.8h-19.247a2.9 2.9 0 0 0-2.051 4.951l44.484 44.483H104.74a2.9 2.9 0 0 0 0 5.8h129.429a2.9 2.9 0 0 0 2.679-1.791zM226.191 257.58a2.9 2.9 0 0 0-2.9-2.9H18.522a2.9 2.9 0 1 0 0 5.8h204.77a2.9 2.9 0 0 0 2.899-2.9zm30.959 171.837c.55-.55.85-1.27.85-2.05 0-.76-.31-1.51-.85-2.05-1.08-1.08-3.02-1.08-4.1 0-.54.54-.85 1.29-.85 2.05 0 .78.3 1.5.85 2.05s1.28.85 2.05.85c.78 0 1.5-.3 2.05-.85zm222.108-282.711a2.9 2.9 0 0 0 0-4.102l-90.999-90.999c-1.088-1.087-3.014-1.087-4.102 0L355.474 80.29a2.9 2.9 0 0 0-.013 4.088l25.717 26.047a2.9 2.9 0 0 0 2.055.862h.009a2.9 2.9 0 0 0 2.051-.849l16.814-16.815a2.9 2.9 0 1 0-4.102-4.102l-14.751 14.751-21.642-21.919 24.596-24.597 88.948 88.949c.566.566 1.309.849 2.051.849s1.484-.282 2.051-.848zm-303.824-16.65l114.17-114.171 53.34 53.34a2.9 2.9 0 1 0 4.102-4.102l-55.391-55.39c-1.088-1.087-3.014-1.087-4.102 0l-116.22 116.222a2.902 2.902 0 0 0 2.051 4.951c.742 0 1.484-.284 2.05-.85zm121.991 17.804l49.621-49.621a2.9 2.9 0 1 0-4.102-4.102l-49.621 49.621a2.9 2.9 0 1 0 4.102 4.102zm22.915 56.215l77.729-77.729a2.9 2.9 0 1 0-4.102-4.102l-75.678 75.678-61.038-61.039c-1.088-1.087-3.014-1.087-4.102 0l-61.038 61.039-75.678-75.678a2.902 2.902 0 0 0-4.102 0 2.902 2.902 0 0 0 0 4.102l77.729 77.729c1.088 1.087 3.014 1.087 4.102 0l61.038-61.039 61.038 61.039a2.903 2.903 0 0 0 4.102 0zm-117.091 28.612a2.9 2.9 0 0 0-2.9-2.9h-56.995a2.9 2.9 0 1 0 0 5.8h56.995a2.9 2.9 0 0 0 2.9-2.9zm166.116 0a2.9 2.9 0 0 0-2.9-2.9h-56.993a2.9 2.9 0 1 0 0 5.8h56.993a2.9 2.9 0 0 0 2.9-2.9zm-10.779 157.66l84.075-84.075a2.9 2.9 0 1 0-4.102-4.102l-83.226 83.225h-75.621a2.9 2.9 0 0 0 0 5.8h76.822a2.894 2.894 0 0 0 2.052-.848zm-101.459-6.256l25.51-25.288h74.887a2.9 2.9 0 0 0 0-5.8h-76.08c-.765 0-1.498.303-2.042.841l-24.308 24.097-24.087-24.088a2.901 2.901 0 0 0-2.051-.85h-76.08a2.9 2.9 0 0 0 0 5.8h74.879l25.279 25.279c.566.566 1.309.85 2.051.85.739 0 1.477-.281 2.042-.841zm111.68-177.049l19.026-19.027 18.556 19.002a2.906 2.906 0 0 0 2.058.874 2.927 2.927 0 0 0 2.068-.849l19.025-19.027 18.557 19.002a2.906 2.906 0 0 0 2.058.874h.018a2.9 2.9 0 0 0 2.051-.849l19.05-19.051 18.556 18.557a2.9 2.9 0 1 0 4.102-4.102l-20.606-20.607c-1.088-1.087-3.014-1.087-4.102 0l-19.025 19.027-18.557-19.002a2.906 2.906 0 0 0-2.058-.874 2.924 2.924 0 0 0-2.068.849l-19.025 19.026-18.556-19.002a2.906 2.906 0 0 0-2.058-.874 2.954 2.954 0 0 0-2.068.849l-21.102 21.102a2.9 2.9 0 0 0 4.1 4.102zm50.115 244.795l19.051-19.051 18.556 18.557a2.9 2.9 0 1 0 4.102-4.102l-20.606-20.607a2.9 2.9 0 0 0-4.102 0l-18.804 18.804-18.803-18.804a2.9 2.9 0 0 0-4.102 0l-18.804 18.804-18.803-18.804a2.9 2.9 0 0 0-4.102 0l-21.102 21.102a2.9 2.9 0 1 0 4.102 4.102l19.051-19.051 17.827 17.827a2.9 2.9 0 0 0 4.83 1.224l19.051-19.051 17.827 17.827a2.904 2.904 0 0 0 2.778 2.074 2.91 2.91 0 0 0 2.053-.851zM268.03 600.246c0-7.129-5.8-12.93-12.929-12.93-7.129 0-12.929 5.801-12.929 12.93s5.8 12.929 12.929 12.929c7.129 0 12.929-5.8 12.929-12.929zm-5.801 0c0 3.931-3.198 7.128-7.128 7.128s-7.129-3.197-7.129-7.128 3.198-7.129 7.129-7.129 7.128 3.198 7.128 7.129zM465.34 378.525c0-15.78-12.838-28.618-28.617-28.618s-28.617 12.838-28.617 28.618c0 15.779 12.838 28.617 28.617 28.617s28.617-12.837 28.617-28.617zm-5.801 0c0 12.581-10.235 22.816-22.816 22.816s-22.816-10.235-22.816-22.816c0-12.582 10.235-22.817 22.816-22.817s22.816 10.235 22.816 22.817zm-50.977 98.278a2.9 2.9 0 0 0-2.9-2.9H283.233l44.483-44.483a2.902 2.902 0 0 0-2.051-4.951H306.42a2.9 2.9 0 0 0 0 5.8h12.245l-44.483 44.483a2.902 2.902 0 0 0 2.051 4.951h129.429a2.9 2.9 0 0 0 2.9-2.9zm86.217-219.223a2.9 2.9 0 0 0-2.9-2.9h-204.77a2.9 2.9 0 1 0 0 5.8h204.77a2.901 2.901 0 0 0 2.9-2.9zm-150.84 312.862a2.9 2.9 0 0 0-2.9-2.9H169.362a2.9 2.9 0 0 0 0 5.8h171.677a2.899 2.899 0 0 0 2.9-2.9zM156.583 339.888l1.56-28.087c.078-1.014-.39-1.326-2.73-1.326-2.341 0-3.121.546-3.277 1.639l-.78 12.404c-4.291 1.171-7.724 1.717-11.859 1.717-11.391 0-17.788-6.632-17.788-18.49 0-8.894 4.993-20.051 20.207-20.051 4.213 0 8.192.624 11 1.404 1.014.312 1.95-.624 2.887-2.809.702-1.638.39-2.185-.702-2.653-2.575-1.092-7.256-1.794-13.575-1.794-19.973 0-26.214 15.292-26.214 26.058 0 14.043 7.646 23.874 24.03 23.874 4.213 0 7.802-.546 11.781-1.482l-.546 10.064c-.078.858.858 1.404 2.731 1.404 1.871 0 3.197-.781 3.275-1.872zm54.297-8.817c1.95-.936 2.34-1.794 1.95-2.965-4.759-14.823-12.639-31.051-21.767-45.406-.546-.936-1.716-1.326-3.901-.39-2.185.858-2.418 2.028-1.794 2.887 2.107 3.355 4.213 6.709 6.164 10.143-14.433 3.199-25.434 9.752-25.434 20.05 0 12.562 9.674 16.228 18.491 16.228 6.709 0 14.979-1.794 21.377-4.915.468 1.404.936 2.887 1.404 4.291.233.779 1.403.858 3.51.077zm-25.512-4.915c-7.021 0-13.107-3.198-13.107-10.923 0-7.177 8.972-11.937 22.079-14.667 3.745 7.021 7.1 14.277 9.831 21.377-8.115 3.355-15.136 4.213-18.803 4.213zm33.153-1.95c-.937 2.106-.39 3.043.78 3.667 2.886 1.561 10.064 3.822 17.788 3.822 13.263 0 19.348-5.695 19.348-14.121 0-19.192-29.803-10.688-29.803-22.235 0-5.149 4.603-7.49 12.795-7.49 4.993 0 9.44 1.014 12.717 2.106 1.327.312 2.653-.078 3.589-2.653.625-1.56.078-2.262-1.014-2.652-3.667-1.561-8.582-2.575-15.058-2.575-12.015 0-19.583 4.213-19.583 13.263 0 18.022 29.803 8.972 29.803 22.235 0 4.759-2.809 8.426-12.951 8.426-6.631 0-12.483-2.106-15.213-3.276-1.248-.467-2.418-.234-3.198 1.483zm88.468 6.943c2.106-.702 2.185-1.716 1.56-2.809l-17.632-29.881 16.618-12.405c1.17-.858 1.326-2.263-.624-3.589-1.561-1.014-3.277-.858-4.369 0l-28.165 20.987.547-29.257c0-.936-.702-1.482-3.043-1.482s-3.354.78-3.354 1.873l-1.015 55.315c0 .937.937 1.482 2.965 1.482 1.95 0 3.433-.78 3.433-1.873l.312-18.802 11.391-8.504 16.617 28.243c.702 1.17 1.873 1.717 4.759.702zm43.997-1.715c1.015-.547 1.326-1.561.546-3.823-.546-1.248-1.248-1.795-2.184-1.482-3.043 1.015-6.164 1.872-10.767 1.872-13.107 0-18.568-7.178-18.803-17.632h26.994c1.015 0 1.795-1.17 1.795-3.277 0-2.028-.547-2.418-1.482-2.418h-26.839c1.404-7.1 6.242-14.979 19.427-14.979 3.745 0 7.256.546 10.064 1.249 1.015.234 2.106-.546 3.043-2.731.624-1.638.312-2.185-.858-2.73-2.497-1.092-7.021-1.639-12.249-1.639-19.973 0-26.058 14.902-26.058 25.98 0 14.667 8.504 23.951 24.419 23.951 5.619-.002 9.832-.937 12.952-2.341zm42.595.389c1.248-.39 1.716-1.17 1.326-3.745-.234-1.638-1.092-2.185-2.028-1.95-2.106.468-8.348 1.95-13.419 1.95-8.504 0-10.923-2.496-10.767-7.334l.624-30.739h23.562c.858 0 1.561-1.326 1.561-3.433 0-1.873-.624-2.185-1.404-2.185h-23.562l.155-8.114c0-1.249-.624-1.717-2.418-1.482-2.73.312-3.745.858-3.745 2.106l-1.092 45.173c-.156 7.021 3.667 11.624 16.384 11.624 6.631.001 12.249-1.169 14.823-1.871zM115.336 545.048c1.326 0 2.028-1.248 2.028-3.199 0-1.638-.468-2.34-1.56-2.34H93.491l1.716-1.561c12.405-11.547 19.583-18.101 19.583-27.15 0-9.908-7.49-12.561-15.213-12.561-6.788 0-12.405 1.482-15.448 2.809-1.092.546-1.326 1.56-.936 3.589.468 1.638 1.326 1.872 2.575 1.56 3.354-1.014 7.958-2.106 13.341-2.106 4.447 0 9.284 1.404 9.284 7.334 0 6.866-6.397 12.405-18.568 23.952l-7.1 6.709c-1.326 1.171-.702 2.965 1.249 2.965h31.362zm25.117 8.894c22.079-.156 25.98-11.079 25.98-19.193 0-9.518-4.759-21.221-14.355-33.625 2.731-1.171 6.554-1.873 10.845-1.873 1.404-.078 2.34-.546 2.34-2.418 0-2.185-.858-3.199-2.106-3.199-22.469 0-26.838 10.923-26.838 19.192 0 9.597 5.149 21.768 14.667 34.016-2.652 1.015-6.241 1.639-10.298 1.717-1.326.078-2.262.468-2.262 2.341-.001 2.184.779 3.042 2.027 3.042zm1.795-41.427c0-3.277 1.014-6.944 4.213-9.362 9.362 12.249 14.043 23.249 14.043 31.987 0 3.354-.78 6.787-4.057 9.44-9.363-12.327-14.199-23.483-14.199-32.065zm43.919 9.752c0 12.951 6.709 23.327 19.583 23.327 13.185 0 20.285-11.469 20.285-24.81 0-12.795-6.943-22.547-19.583-22.547-15.058 0-20.285 13.731-20.285 24.03zm6.319.078c0-9.83 4.916-18.49 13.965-18.49 2.106 0 3.979.39 5.54 1.17l-15.916 30.271c-2.34-3.121-3.589-7.647-3.589-12.951zm13.342 17.71c-2.028 0-3.823-.39-5.461-1.17l15.994-30.35c2.263 2.965 3.433 7.256 3.433 12.405-.001 9.83-4.916 19.115-13.966 19.115zm43.918 13.887c22.08-.156 25.98-11.079 25.98-19.193 0-9.518-4.759-21.221-14.355-33.625 2.73-1.171 6.554-1.873 10.845-1.873 1.404-.078 2.341-.546 2.341-2.418 0-2.185-.858-3.199-2.106-3.199-22.47 0-26.838 10.923-26.838 19.192 0 9.597 5.149 21.768 14.667 34.016-2.653 1.015-6.242 1.639-10.299 1.717-1.326.078-2.262.468-2.262 2.341-.002 2.184.779 3.042 2.027 3.042zm1.794-41.427c0-3.277 1.014-6.944 4.213-9.362 9.362 12.249 14.043 23.249 14.043 31.987 0 3.354-.78 6.787-4.057 9.44-9.362-12.327-14.199-23.483-14.199-32.065zm72.006 32.533c1.248 0 1.95-1.404 1.95-3.276 0-1.639-.39-2.263-1.56-2.263h-10.611l.625-38.854c0-1.092-.312-1.872-1.717-1.872h-16.149c-1.249 0-1.951 1.248-1.951 3.12 0 1.717.469 2.653 1.561 2.653h11.859l-.625 34.952h-10.22c-1.248 0-1.95 1.404-1.95 3.198 0 1.639.546 2.341 1.638 2.341h27.15zm21.842 8.894c22.079-.156 25.979-11.079 25.979-19.193 0-9.518-4.759-21.221-14.355-33.625 2.73-1.171 6.554-1.873 10.845-1.873 1.404-.078 2.341-.546 2.341-2.418 0-2.185-.858-3.199-2.106-3.199-22.47 0-26.839 10.923-26.839 19.192 0 9.597 5.149 21.768 14.668 34.016-2.653 1.015-6.242 1.639-10.299 1.717-1.326.078-2.263.468-2.263 2.341-.001 2.184.78 3.042 2.029 3.042zm1.794-41.427c0-3.277 1.015-6.944 4.213-9.362 9.362 12.249 14.043 23.249 14.043 31.987 0 3.354-.779 6.787-4.057 9.44-9.362-12.327-14.199-23.483-14.199-32.065zm60.38 33.079c13.186 0 19.583-6.787 19.583-16.93 0-9.752-5.695-14.901-16.384-14.901-3.979 0-7.334.624-10.221 1.716 3.043-6.007 7.178-11.312 11.469-16.149.937-1.014.469-2.263-1.482-3.121-1.794-.779-3.042-.39-4.291.937-6.163 6.554-16.071 20.597-16.071 33.002 0 11.545 8.66 15.446 17.397 15.446zm.626-5.305c-6.086 0-11.859-2.419-11.859-9.831 0-4.213.858-7.646 3.043-9.361 1.561-1.404 4.525-2.106 9.596-2.106 6.632 0 12.016 2.652 12.016 10.063-.002 7.646-4.917 11.235-12.796 11.235zM256.489 251.098l31.96-15.845a2.899 2.899 0 0 0 .711-4.623l-31.885-31.885a2.947 2.947 0 0 0-2.063-.849c-.739.021-1.493.28-2.062.849l-31.751 31.75a2.898 2.898 0 0 0 .605 4.796l31.885 15.807c.4.199.865.302 1.312.302s.887-.103 1.288-.302zm-1.277-46.213l26.992 26.992-27.015 13.393-26.984-13.377 27.007-27.008z"/></svg>