<svg xmlns="http://www.w3.org/2000/svg" width="960" height="621.205" viewBox="0 0 960 621.205"><path d="M-216.227-18.382l-.801.129c1.132 6.04 1.464 12.371 3.54 18.066 7.647 20.976 20.961 37.898 39.055 50.881 8.636 6.196 18.542 9.949 29.269 9.482 8.38-.365 16.894-1.381 25.012-3.436C-78.22 46.127-54.963-3.312-88.989-41.506c-18.688-20.976-43.203-31.959-69.897-38.55-7.922-1.956-13.258 1.673-15.867 9.44-5.293 15.758-14.892 26.96-31.689 31.173-6.125 1.536-9.071 6.476-9.736 12.585-.302 2.793-.049 5.649-.049 8.476zm154.915 264.904c-.105 18.744 2.228 25.906 8.877 32.485 24.813 24.554 64.319 28.894 93.985 10.401a392.254 392.254 0 0 1 17.785-10.453c8.962-4.952 16.012-11.682 17.117-22.186.838-7.966 1.325-16.442-.467-24.123-5.833-25.005-22.221-42.16-44.114-54.308-21.545-11.955-50.256-7.87-67.831 9.449-17.784 17.523-24.443 39.602-25.352 58.735zM682.37 69.886c29.331-.013 47.59-13.016 56.69-39.01.407-1.162.779-2.344 1.299-3.456 13.374-28.583 7.943-54.649-10.826-78.734-7.931-10.178-18.76-15.741-31.61-15.955-28.987-.484-50.173 13.488-65.388 37.236C621.843-13.344 618.202 5.525 617.543 25c-.413 12.205 5.116 21.413 15.852 27.335 5.872 3.239 11.719 6.554 17.77 9.429 10.447 4.964 21.284 8.631 31.205 8.122zM206.682 471.821c-1.227-16.191-6.582-30.86-13.389-45.164-6.133-12.886-16.461-20.606-30.24-22.253-30.799-3.681-57.507 3.846-76.109 30.827-1.805 2.619-3.892 5.064-5.494 7.798-6.511 11.114-13.659 21.944-19.119 33.562-7.456 15.864-2.197 28.362 13.745 35.543 4.323 1.947 8.885 3.509 13.483 4.67 11.803 2.981 23.64 5.867 35.559 8.328 5.983 1.236 12.298 2.579 18.248 1.925 14.615-1.606 28.777-5.494 41.876-12.457 9.37-4.981 15.666-12.655 18.08-23.038 1.51-6.489 2.266-13.154 3.36-19.741zm457.781-224.228l-.029.561c-3.706 0-7.438-.287-11.114.049-16.72 1.527-28.686 12.347-30.2 28.945-1.817 19.921.285 39.592 8.539 58.134 15.047 33.803 57.703 45.39 85.981 28.896 15.107-8.812 32.079-14.478 48.359-21.203 7.108-2.936 11.279-8.777 9.22-16.165-1.3-4.665-3.321-9.549-6.351-13.239-11.646-14.18-23.758-27.981-35.836-41.802-9.847-11.267-21.952-19.068-36.897-21.277-10.471-1.547-21.108-1.972-31.672-2.899zm83.717-92.738c-.583-18.23-5.546-35.168-15.491-50.495-7.77-11.974-23.577-18.717-37.061-14.759-17.443 5.121-34.562 11.32-50.114 21.133-12.945 8.167-21.552 19.063-25.673 34.214-3.333 12.253-3.491 24.215-2.713 36.661 1.305 20.879 11.295 33.22 31.804 37.965 14.355 3.322 28.422 1.156 42.587-1.229 27.769-4.675 57.938-28.232 56.661-63.49zm-463.994 13.547c-16.824 1.665-34.799 4.99-50.819 15.005-17.898 11.188-24.487 27.404-17.419 47.311 4.758 13.398 11.586 26.102 18.025 38.845 3.001 5.94 6.82 11.611 11.055 16.757 15.154 18.416 38.013 21.707 57.84 8.53 8.672-5.764 17.277-11.658 25.617-17.888 14.186-10.598 20.296-25.05 18.603-42.564-1.864-19.27-11.357-34.926-23.847-49.206-10.006-11.438-22.545-16.547-39.055-16.79zm757.191 215.578c-.285 21.382 5.925 40.229 20.499 55.915 16.241 17.481 38.851 21.681 58.759 10.983 13.276-7.134 24.101-17.264 32.95-29.4 6.866-9.416 10.719-20.141 9.587-31.79-.879-9.048-3.002-18.036-5.274-26.87-2.628-10.22-5.347-20.515-9.276-30.274-4.112-10.212-12.553-15.173-23.791-15.519-24.054-.742-44.723 8.186-64.201 21.317-9.592 6.467-15.019 15.333-17.199 26.259-1.265 6.344-1.406 12.912-2.054 19.379zM279.455 761.618c29.488-.06 56.397-22.14 59.7-51.365 2.074-18.36-.027-37.057-5.851-54.892-3.348-10.251-10.669-16.661-21.15-19.745-13.343-3.925-26.86-4.879-40.315-1.787-26.701 6.136-49.064 17.951-55.271 47.742-1.886 9.049-4.472 18.884-2.77 27.582 6.07 31.03 33.992 52.529 65.657 52.465zm688.403-514.504c-2.298 0-4.598-.063-6.893.026-1.226.047-2.448.327-3.662.553-24.084 4.476-42.023 18.677-57.053 36.934-7.663 9.308-9.025 20.406-5.753 32.075 3.429 12.231 10.471 22.175 18.654 31.667 8.526 9.891 20.471 14.951 30.368 22.866 16.085 12.863 36.111 7.72 46.844-2.184 13.391-12.357 25.554-26.05 34.058-42.404 11.251-21.637 7.945-41.048-9.89-57.688-5.394-5.033-11.577-9.28-17.681-13.475-8.675-5.961-18.398-8.871-28.992-8.37zm-536.086-.088c-11.739 1.816-23.139 3.215-34.385 5.402-17.815 3.464-29.625 14.295-35.77 31.224-4.626 12.742-4.599 25.91-3.509 39.281 1.393 17.092 9.32 30.155 22.947 39.985 13.195 9.518 28.122 13.852 44.32 13.686 29.236-.3 48.108-16.688 53.068-45.499 3.174-18.434 1.303-36.582-1.565-54.85-2.083-13.271-10.26-20.753-21.948-24.655-7.432-2.482-15.479-3.124-23.158-4.574zM277.768 451.339c2.935-.328 6.36-.324 9.581-1.133 29.239-7.344 48.582-25.972 58.69-53.822 4.686-12.911 2.477-26.052-5.918-37.311-16.242-21.783-38.387-31.781-65.298-30.434-20.577 1.03-38.313 10.321-55.281 21.242-12.25 7.885-16.455 18.235-10.996 31.84 5.643 14.061 11.928 27.966 19.198 41.247 10.549 19.269 28.201 27.338 50.024 28.371zM475.69 0c.042-28.155-16.909-51.732-42.947-59.734-27.647-8.496-55.293 1.027-71.264 24.687-9.439 13.984-14.238 29.834-18.251 46.012-2.149 8.664-.741 16.641 5.963 22.298 6.521 5.502 14.044 9.908 21.445 14.252 7.894 4.634 16.548 8.044 24.174 13.049 10.999 7.219 22.355 9.401 34.706 4.999C454.924 56.509 475.65 26.926 475.69 0zM21.386 323.393c-22.92.556-43.903 8.214-64.186 18.113-2.662 1.299-5.412 4.032-6.435 6.738-2.148 5.681-3.978 11.715-4.505 17.73-1.378 15.739 3.552 30.339 9.522 44.631 11.426 27.355 35.894 42.068 65.417 39.298 22.367-2.099 39.094-16.295 43.631-37.736 2.41-11.39 4.103-22.944 5.743-34.478.741-5.215 1.093-10.601.698-15.84-1.025-13.606-5.983-25.246-19.164-31.353-9.663-4.478-19.803-7.609-30.721-7.103zm970.968-257.15c26.906 1.161 32.683-3.899 32.245-22.634-.415-17.765-1.767-35.539-3.479-53.234-2.351-24.303-20.816-45.065-44.521-51.12-24.176-6.175-50.641 3.591-64.881 23.233-17.097 23.584-18.274 66.665 20.825 88.21 21.374 11.778 44.693 14.745 59.811 15.545zm-26.908 149.536c9.258-1.294 18.718-1.787 27.732-4.054 16.854-4.24 28.085-15.085 31.161-32.449 3.043-17.178-.1-33.869-7.723-49.517C1001.012 97.734 965 84.39 934.405 99.828c-15.632 7.888-27.378 20.677-36.597 35.374-11.819 18.844-9.652 38.785 6.614 54.018 16.944 15.868 36.822 26.162 61.024 26.559zm-747.841 321.57c.227 4.199.364 7.376.575 10.548 1.659 24.977 17.985 46.459 41.558 54.389 20.684 6.958 40.498 3.708 59.399-6.124 8.417-4.378 14.466-11.557 17.613-20.487 4.887-13.87 8.196-28.186 8.261-42.992.08-18.137-7.836-31.392-24.501-39.34-16.176-7.714-33.335-10.782-50.966-10.183-31.557 1.07-52.763 24.035-51.939 54.189zm275.72 3.131c-.033 14.935 4.619 28.026 13.262 39.73 24.137 32.686 68.986 34.605 93.188 3.576 7.898-10.126 14.466-21.329 21.191-32.316 3.627-5.926 5.449-12.597 4.413-19.773-2.43-16.839-12.597-28.418-27.357-34.585-16.497-6.894-33.775-12.408-51.189-16.494-20.613-4.836-37.8 5.208-46.348 24.544-5.015 11.348-6.738 23.331-7.16 35.318zm-615.347-168.107c25.913.339 42.662-12.066 47.34-37 1.812-9.66 1.292-20.12-.111-29.937-2.092-14.638-6.463-28.94-8.851-43.55-3.139-19.207-15.997-28.982-34.779-23.354-13.77 4.126-26.877 10.574-40.07 16.458-3.878 1.73-8.04 4.399-10.32 7.809-4.765 7.126-8.85 14.817-12.318 22.672-4.271 9.674-7.668 19.735-11.37 29.657-5.233 14.026.217 28.877 14.798 39.664 16.513 12.218 35.405 17.153 55.681 17.581zm-77.915 261.284c.225 4.59.226 9.204.713 13.766 2.054 19.27 16.979 33.868 34.702 35.016 9.439.611 18.942 1.854 28.164 3.932 30.087 6.779 55.497-7.955 59.603-37.517 4.323-31.127-4.498-58.643-30.516-78.513-10.583-8.082-22.588-12.601-36.244-9.192-35.479 8.86-57.328 40.58-56.422 72.508zM212.667 55.865l-.533.102c1.334 10.147 2.178 20.389 4.113 30.421 3.165 16.411 10.794 30.316 25.644 39.111 28.956 17.148 78.411 11.051 95.642-28.822 6.74-15.597 7.999-29.869-1.481-44.748-10.943-17.177-24.181-31.51-45.185-34.595-14.611-2.146-29.622-2.91-44.383-2.363-19.34.717-30.227 11.721-33.156 30.856-.506 3.301-.455 6.689-.661 10.038zm-83.006 160.386c26.987.023 49.362-11.054 61.113-30.418 8.268-13.626 11.668-28.804 11.338-44.61-.398-19.048-9.35-33.227-26.838-40.973-10.121-4.483-20.762-8.003-31.454-10.9-6.004-1.627-12.71-2.101-18.891-1.357-16.617 2.001-28.434 9.606-27.384 28.331.448 8-.684 15.958-4.809 23.027-2.985 5.117-5.901 10.528-9.974 14.712-14.958 15.367-14.87 30.947 1.004 45.466 13.247 12.116 29.415 16.227 45.895 16.722zM67.337 64.458c.248-17.229-12.617-35.169-29.73-41.35-15.11-5.458-30.535-4.144-46.081-2.415-12.375 1.376-23.373 5.796-30.815 15.612-14.013 18.483-26.186 38.266-31.878 61.046-1.583 6.335-.592 13.611.528 20.234.953 5.636 5.609 8.617 11.411 9.537 18.979 3.01 37.948 6.09 56.909 9.21 10.009 1.647 20.515 2.679 28.064-5.089 10.919-11.237 21.072-23.323 30.599-35.775 6.812-8.905 10.629-19.503 10.993-31.01zm350.455 619.14c21.544-.521 40.065-14.523 53.71-35.551 14.568-22.45 11.805-44.039-7.27-62.827-17.147-16.889-38.38-24.966-62.059-26.305-23.351-1.32-39.831 9.8-46.017 31.486-6.798 23.833-1.576 46.143 8.088 67.911 1.322 2.978 3.616 5.739 6.037 7.977 12.007 11.095 26.091 17.303 47.511 17.309zm273.135-122.359c-3.172.22-6.384.199-9.506.719-4.17.694-8.371 1.495-12.386 2.789-31.322 10.097-48.783 41.701-40.755 73.541 7.77 30.821 38.688 50.536 70.566 44.025 17-3.472 31.858-12.445 45.902-22.367 7.677-5.424 11.037-13.376 10.855-22.998-.35-18.483-6.442-34.952-16.737-50.03-11.502-16.843-27.351-25.644-47.939-25.679zm-57.969-96.846c1.153 7.693 2.723 22.108 5.632 36.249 2.04 9.921 4.721 20.061 9.229 29.041 6.914 13.772 20.373 18.083 34.681 12.447 5.532-2.179 10.803-5.283 15.753-8.619 7.765-5.235 14.997-11.259 22.736-16.535 26.69-18.195 34.722-53.324 18.372-81.151-17.118-29.134-56.672-39.281-85.265-21.313-15.626 9.819-21.451 25.16-21.138 49.881zM200.084 615.379c0-2.121.123-4.25-.019-6.362-1.311-19.526-14.143-37.892-31.12-42.915-8.383-2.48-17.308-4.153-26.021-4.311-29.619-.536-50.591 14.56-65.258 39.049-9.191 15.345-8.433 31.365 1.695 45.987 5.569 8.039 12.401 15.505 19.801 21.918 26.086 22.609 65.3 19.182 85.354-7.057 10.408-13.619 15.665-29.117 15.568-46.309zm899.42-478.597c38.164.069 66.727-31.519 61.822-67.749-2.76-20.385-12.537-38.126-25.339-53.983-7.731-9.575-18.254-13.586-30.672-11.996-14.804 1.896-27.214 8.512-37.313 19.35-17.369 18.641-23.261 41.674-23.797 66.243-.139 6.379 1.641 13.787 5.074 19.078 11.986 18.475 29.286 28.658 50.225 29.057zm-546.769 624.82c29.984-.003 54.935-20.537 60.251-49.585 5.347-29.215-11.11-58.404-39.243-67.834-10.284-3.447-21.249-5.635-32.062-6.579-26.6-2.321-44.814 11.634-49.022 37.583-1.506 9.285-1.074 19.049-.345 28.503 2.579 33.445 28.376 57.916 60.421 57.912zM416.049 403.727c-23.686.073-43.85 11.582-54.36 31.026-8.952 16.562-9.791 51.055-1.638 68.013 5.969 12.416 15.396 20.925 29.143 23.042 9.34 1.438 19.053 2.394 28.402 1.502 41.549-3.964 69.029-48.736 54.561-88.042-7.722-20.979-30.835-35.619-56.108-35.541zM151.224-63.843c-10.144 1.275-20.331 2.281-30.423 3.887-15.535 2.472-29.384 15.164-32.111 30.641-1.348 7.649-.881 15.831.05 23.619 1.525 12.757 3.024 25.691 6.484 38.002 5.13 18.254 20.821 29.103 39.798 29.028 25.705-.102 44.363-12.703 57.079-34.24 5.357-9.073 9.761-18.875 13.28-28.812 2.713-7.662 5.047-16.15 4.588-24.099-.935-16.177-11.785-25.831-25.953-31.857-10.398-4.422-21.452-5.665-32.792-6.169zm687.109 200.937c9.225-.187 20.247-1.705 30.355-6.854 10.985-5.595 18.969-13.882 21.901-26.356 6.5-27.649-6.182-61.087-29.458-77.384-25.61-17.931-60.415-13.395-80.299 10.466-20.281 24.338-18.854 60.05 3.541 81.824 14.422 14.024 32.275 18.925 53.96 18.304zm263.112 156.163c4.202-.523 8.457-.777 12.596-1.612 27.933-5.637 48.754-31.713 48.072-60.037-.712-29.591-22.004-55.134-50.587-58.865-29.933-3.907-54.01 8.046-72.37 31.186-9.019 11.367-9.672 24.729-4.022 38.183 5.347 12.734 12.92 23.966 23.17 33.262 12.204 11.068 26.211 17.89 43.141 17.883zM822.501-18.981c1.938-.166 3.873-.4 5.815-.488 40.08-1.819 65.343-34.36 56.766-73.511-5.004-22.844-18.002-39.13-41.097-45.418-22.636-6.163-42.709-.558-59.401 15.977-18.536 18.362-23.717 41.165-20.989 66.292 1.379 12.701 8.346 21.901 19.149 28.336 12.27 7.31 25.737 9.331 39.757 8.812zm-949.512 236.385c13.184.123 23.094-1.445 31.905-6.97 15.005-9.41 20.879-24.026 20.087-40.764-1.032-21.811-7.58-42.41-19.537-60.794-8.036-12.356-20.267-18.706-35.046-18.609-21.933.143-54.617 15.706-63.572 46.335-7.393 25.284 2.222 53.887 23.484 67.192 13.909 8.702 29.14 13.354 42.679 13.61zM969.842 561.863c-3.872.206-7.75.337-11.615.63-38.716 2.931-65.735 41.213-55.504 78.609 7.585 27.724 38.451 46.946 66.818 40.868 24.363-5.22 44.047-16.863 50.698-43.009 2.427-9.539 3.668-19.412 4.979-29.195 1.579-11.779-3.133-21.423-11.316-29.565-12.169-12.108-27.244-17.205-44.06-18.338zM825.994 293.549c16.007.251 31.618-5.882 44.285-19.768 26.388-28.93 21.002-74.215-13.117-93.671-14.736-8.403-31.884-13.449-48.562-17.331-17.548-4.085-33.132 8.905-34.906 26.916-.702 7.127-.419 14.525.639 21.617 2.22 14.871 4.868 29.611 3.03 44.774-1.331 10.977 3.687 19.441 11.683 26.493 9.901 8.731 21.803 11.073 36.948 10.97zM2.07 608.112c5.587-.729 11.286-.982 16.742-2.265 37.223-8.75 53.92-43.933 37.719-78.484-7.804-16.642-21.149-28.072-35.093-39.003-20.736-16.255-42.011-8.847-55.72 4.169-13.692 13.001-19.929 29.829-22.759 47.95-3.128 20.024 2.34 37.41 17.893 51.04 11.763 10.308 25.65 15.27 41.218 16.593zm143.487-359.648c-7.314 1.486-18.651 1.728-28.032 6.134-18.302 8.596-30.261 23.904-36.791 43.226-2.163 6.4-2.202 12.815 1.546 18.367 14.097 20.884 29.507 40.601 50.486 55.289 6.371 4.46 13.207 5.458 20.133 3.358 5.625-1.705 11.293-4.346 15.983-7.854 12.913-9.656 20.891-23.268 28.068-37.392 6.301-12.4 11.206-24.868 9.66-39.422-2.257-21.244-14.073-35.241-34.941-38.914-7.449-1.31-15.069-1.647-26.112-2.792zm698.351 511.733c37.143-.047 58.996-28.878 48.287-58.24-2.412-6.614-4.818-13.23-7.162-19.868-10.803-30.593-41.643-47.698-72.133-39.985-20.935 5.296-43.264 31.315-45.669 53.931-1.934 18.188 2.36 34.148 18.83 44.689 18.881 12.084 39.939 17.383 57.847 19.473zm124.043-231.988l.049.951c7.914-.587 15.938-.538 23.721-1.882 22.304-3.852 33.966-19.681 31.365-41.567-.456-3.837-.698-7.711-.813-11.575-.157-5.289.284-10.62-.197-15.872-1.824-19.887-13.432-34.289-32-39.986-11.748-3.605-23.755-5.219-36.086-5.072-41.294.489-57.445 36.271-52.705 60.769 2.992 15.461 11.923 28.584 22.716 40.115 10.171 10.866 22.467 16.298 37.611 14.159 2.073-.293 4.224-.04 6.339-.04zm-137.047-44.414c-15.995.816-29.668 7.714-40.388 20.996-8.554 10.598-13.838 22.917-18.815 35.421-3.932 9.879-3.619 19.666.289 29.406 15.58 38.831 70.096 48.405 98.977 17.121 8.357-9.052 15.876-18.943 23.112-28.934 2.654-3.664 4.205-8.616 4.821-13.174 1.745-12.915-3.883-23.423-12.534-32.429-10.574-11.009-23.236-19.044-37.542-24.214-5.73-2.069-11.932-2.834-17.92-4.193zM421.438 97.193c-20.458-.233-34.282 3.652-47.114 10.963-11.732 6.685-21.293 15.86-21.844 29.986-1.129 28.945 9.181 53.178 33.982 69.462 17.461 11.465 36.225 8.799 54.509 1.769 16.188-6.224 29.193-16.47 33.871-33.991 5.606-20.998.432-40.146-11.975-57.667-11.583-16.357-28.537-20.155-41.429-20.522zM553.652-140.76c-33.251-.236-60.784 26.477-60.963 59.145-.188 34.434 25.886 61.865 59.035 62.107 35.029.256 62.263-26.459 62.383-61.193.111-32.386-27.508-59.825-60.455-60.059zm-.675 589.971c33.486.212 61.01-26.982 61.124-60.389.113-33.408-26.993-60.889-60.615-60.915-37.886-.03-60.327 30.806-60.955 57.758-.842 36.086 25.77 63.326 60.446 63.546zm-15.322-313.068c5.916-.897 10.849-.927 15.277-2.437 21.559-7.355 39.889-19.568 53.428-38.108 5.173-7.084 7.99-15.324 7.338-24.397-3.192-44.385-53.486-70.761-91.262-47.174-23.311 14.555-34.661 36.801-34.215 64.286.339 20.926 10.368 36.07 30.41 43.397 6.379 2.331 13.313 3.144 19.024 4.433zm623.696 563.758c-.21-22.292-6.257-42.031-15.378-61.083-3.654-7.631-9.567-10.346-17.396-10.492-10.944-.204-21.22 2.722-31.615 5.839-14.021 4.203-21.198 13.354-23.998 27.335-3.143 15.698-9.745 30.088-21.069 41.558-8.269 8.375-8.081 17.125-3.719 26.679 10.262 22.476 37.225 36.111 61.589 31.847 25.23-4.416 53.508-25.396 51.586-61.683zm-321.663-248.47c4.388-.977 13.074-2.022 21.121-4.873 21.569-7.641 31.767-23.225 30.769-45.997-.595-13.579-3.884-26.798-10.003-38.759-10.585-20.689-27.29-33.066-51.521-32.919-5.914.036-11.622 1.835-14.653 7.109-5.836 10.155-14.984 16.202-24.576 22.026-5.88 3.57-11.854 7.198-16.99 11.705-3.085 2.707-6.17 6.979-6.623 10.855-2.075 17.764 2.173 34.081 14.192 47.751 14.282 16.243 33.053 22.209 58.284 23.102zM279.284-19.507c25.203-.014 48.487-16.662 57.959-40.799 7.285-18.565 3.989-35.013-10.067-48.548-8.588-8.27-18.441-15.415-28.437-21.984-10.696-7.029-22.89-8.66-35.648-6.62-25.835 4.13-47.659 28.258-49.356 53.167-2.057 30.188 32.23 66.45 65.549 64.784zm827.114 624.534c10.118-1.422 20.408-2.116 30.314-4.44 14.183-3.328 23.336-12.279 26.769-26.968 4.652-19.904 1.966-38.669-7.986-56.317-14.798-26.24-42.083-38.832-69.451-31.116-28.305 7.98-31.6 19.094-29.494 41.157 1.113 11.662.163 22.805-3.661 33.916-4.088 11.877.764 24.572 11.034 31.702 12.797 8.885 26.464 14.16 42.475 12.066zM67.097 701.375c-.475-3.493-.655-7.056-1.472-10.467-6.286-26.225-23.758-43.409-46.753-55.14-18.584-9.481-36.726-5.575-50.086 10.553-7.349 8.873-13.778 18.945-18.571 29.415-13.969 30.51-1.934 63.799 27.624 79.639 7.927 4.248 15.864 5.079 23.753.673 7.69-4.295 15.034-9.207 22.572-13.778 8.438-5.117 16.596-10.845 25.468-15.061 12.044-5.723 17.22-12.544 17.465-25.834zM-71.79 469.317c-.007-24.695-17.513-48.577-43.175-58.9-22.732-9.145-41.134-5.079-55.329 14.709-11.583 16.146-21.194 33.724-31.366 50.854-2.688 4.526-1.342 8.941 2.468 12.911 5.737 5.976 12.505 9.968 19.943 13.553 10.471 5.047 20.204 11.602 30.485 17.077 8.618 4.59 17.675 8.2 27.802 7.2 24.461-2.415 49.179-31.299 49.172-57.404zM1162.096-88.606c-2.129-22.158-12.748-35.821-29.68-44.43-17.474-8.884-35.369-11.048-52.738.84-18.333 12.549-29.498 30.599-38.298 50.39-.745 1.676-.726 3.83-.605 5.732.726 11.372 4.402 21.735 10.975 31.061 20.246 28.726 57.229 32.483 79.056 7.374 9.462-10.884 17.758-22.887 25.619-35.008 3.397-5.235 4.35-12.055 5.671-15.959zM67.339-75.586c-.107-8.038-3.675-20.721-10.623-32.287C46.009-125.7 31.571-138.528 9.682-139.88c-10.828-.669-20.996.708-26.097 12.579-5.88 13.687-15.657 24.567-27.279 33.322-11.749 8.851-12.613 19.869-5.291 31.6 14.706 23.56 36.25 36.981 64.01 39.02 30.331 2.227 52.322-17.834 52.314-52.227zm479.49 252.345c-5.871 1.107-11.938 1.608-17.578 3.43-19.093 6.168-27.775 19.977-24.286 38.373 3.283 17.313 7.142 34.518 10.377 51.84 3.695 19.78 16.84 27.822 36.922 26.889 16.561-.769 29.964-9.019 41.536-20.181 10.613-10.237 18.329-22.558 17.933-37.733-.369-14.162-3.537-28.06-11.277-40.33-1.829-2.899-4.489-5.687-7.424-7.404-14.199-8.312-29.313-13.969-46.203-14.884z"/></svg>