<?xml version="1.0" encoding="utf-8"?>
<!-- Generator: Adobe Illustrator 17.0.0, SVG Export Plug-In . SVG Version: 6.00 Build 0)  -->
<!DOCTYPE svg PUBLIC "-//W3C//DTD SVG 1.1//EN" "http://www.w3.org/Graphics/SVG/1.1/DTD/svg11.dtd">
<svg version="1.1" id="Layer_1" xmlns="http://www.w3.org/2000/svg" xmlns:xlink="http://www.w3.org/1999/xlink" x="0px" y="0px"
	 width="300px" height="186px" viewBox="0 0 300 186" enable-background="new 0 0 300 186" xml:space="preserve">
<g>
	<path fill="#FC0139" d="M122.502,138.126l60.722-24.995c1.528-6.775,2.345-13.843,2.345-21.124
		c0-49.587-36.879-89.706-90.702-89.706c-53.824,0-90.703,40.119-90.703,89.706c0,48.099,34.7,87.285,85.904,89.594
		c31.933,2.313,70.569-1.587,96.584-8.58l-0.307-44.856C174.192,131.336,140.07,137.197,122.502,138.126z M94.866,139.352
		c-18.044,0-29.906-21.928-29.906-47.345c0-25.417,12.029-47.345,29.906-47.345c17.876,0,29.905,21.928,29.905,47.345
		C124.772,117.424,112.91,139.352,94.866,139.352z"/>
	<path fill="#FC0139" d="M295.967,129.261c-8.473,2.528-35.612,6.156-35.612,6.156c-2.303-9.122-2.945-20.737-2.626-33.261
		c-7.275,1.343-14.106,2.597-19.417,2.905l19.268-9.144h0.315l29.355-14.315v-32.65l-24.309,3.968
		c2.406-17.609,4.678-33.007,5.489-41.609l-53.556,16.791c0,0-9.12,35.711-9.12,65.69c0,59.959,8.798,87.81,50.693,87.81
		c13.576,0,27.82-1.81,39.695-6.646L295.967,129.261z"/>
</g>
</svg>
